<?xml version="1.0" encoding="UTF-8"?>
<svg width="36px" height="36px" viewBox="0 0 36 36" version="1.1" xmlns="http://www.w3.org/2000/svg" xmlns:xlink="http://www.w3.org/1999/xlink">
    <title>facebook</title>
    <g id="nav" stroke="none" stroke-width="1" fill="none" fill-rule="evenodd">
        <g transform="translate(-6160, -975)" fill-rule="nonzero" id="socials">
            <g transform="translate(6160, 975)" id="facebook">
                <circle id="Oval" fill="#FFFFFF" cx="18" cy="18" r="18"></circle>
                <path d="M23.8528421,5.52505263 L19.865399,5.52505263 C17.4991171,5.52505263 14.8671443,6.52027844 14.8671443,9.95030221 C14.8786961,11.1454533 14.8671443,12.2900577 14.8671443,13.5782343 L12.1296774,13.5782343 L12.1296774,17.9343565 L14.9518574,17.9343565 L14.9518574,30.4748862 L20.1377521,30.4748862 L20.1377521,17.8515993 L23.5606248,17.8515993 L23.8703226,13.5660102 L20.0483939,13.5660102 C20.0483939,13.5660102 20.0569508,11.6595993 20.0483939,11.1059694 C20.0483939,9.75049915 21.4588115,9.82812224 21.5436469,9.82812224 C22.2148115,9.82812224 23.5197963,9.8300781 23.854798,9.82812224 L23.854798,5.52505263 L23.8528421,5.52505263 Z" id="Path" fill="#002C5A"></path>
            </g>
        </g>
    </g>
</svg>