<?xml version="1.0" encoding="UTF-8"?>
<svg width="900px" height="993px" viewBox="0 0 900 993" version="1.1" xmlns="http://www.w3.org/2000/svg" xmlns:xlink="http://www.w3.org/1999/xlink">
    <title>insignia</title>
    <g id="home" stroke="none" stroke-width="1" fill="none" fill-rule="evenodd" opacity="0.08">
        <g id="home-2" transform="translate(-983, -67)" fill="#C5A559" fill-rule="nonzero">
            <g id="insignia" transform="translate(983, 67)">
                <path d="M373.680856,904.063851 C388.10307,910.442667 398.524164,924.666694 400.415602,940.412105 C402.616217,956.744073 395.650634,973.699259 382.501504,983.524102 C371.407494,992.377459 356.839785,994.83367 343.181422,991.699252 C325.849304,987.611677 311.008792,971.994576 308.899112,954.012913 C306.753057,947.04754 308.899112,941.5119 309.535653,934.656506 C313.845949,917.224742 329.159321,903.055705 346.818802,900.471185 C356.257804,899.884627 365.060265,899.554688 373.680856,904.063851 Z M749.605858,921.821981 C758.722547,936.006342 758.924325,955.85345 750.137818,970.239397 C741.956645,984.405432 725.539268,993.806694 709.103547,992.945369 C701.509364,992.963695 692.080837,990.966156 686.22928,985.963146 C694.282049,975.88382 699.711707,964.393388 699.344838,951.235287 C699.67502,935.328278 691.952433,921.345504 680.286006,910.93631 C688.008594,903.990738 698.629444,899.720769 709.103547,900.233898 C725.282459,899.079357 741.167877,908.260707 749.605858,921.821981 Z M598.975635,0 C581.598398,27.4698009 561.571635,57.1678703 543.554857,84.6559357 C528.790601,93.7151254 513.240623,101.678445 498.49464,110.792428 C489.047709,118.974922 479.600777,127.21221 470.409663,135.686936 C467.906317,140.253059 466.883052,145.641086 464.873067,150.462912 C463.995982,153.713992 461.273366,158.316645 463.100625,161.549461 C471.177112,175.905354 479.162235,190.151661 487.311812,204.471025 L487.585901,205.895656 L486.160639,205.639953 C480.9978,202.266002 475.86154,198.812352 470.730772,195.343113 L463.036101,190.135578 C456.622915,185.799579 450.201835,181.489309 443.731675,177.329985 C439.401578,177.011878 434.832259,178.041976 430.265485,179.238833 L428.823713,179.620953 C425.220903,180.583221 421.635541,181.571914 418.186589,182.005696 C362.966809,230.315286 307.399851,280.067771 252.234889,328.651328 C249.694998,331.208358 246.058752,333.509684 244.322856,336.687706 C243.866041,344.906729 241.837783,353.253604 241.929146,361.454362 C242.787958,365.618667 245.6933,369.49074 247.776376,373.143639 C265.774881,400.284679 286.496003,425.76365 306.632402,451.315679 C308.1673,453.178657 309.245383,455.680893 311.803546,456.210564 C312.354273,453.458147 312.56631,450.253394 312.793902,446.933326 L312.851329,446.101101 C312.889467,445.55406 312.928817,445.004675 312.970939,444.454431 L313.036396,443.628605 C313.659051,436.056029 314.953329,428.461308 320.976388,424.704309 C327.335251,418.677026 330.185775,408.686347 331.611038,400.302943 L333.511388,400.41253 C338.116081,418.147355 343.013136,435.005485 347.910192,452.466342 C348.440097,454.347585 349.09791,456.320151 350.139448,457.963955 C351.986309,452.651644 354.117721,447.229401 356.229359,441.73606 L356.973326,439.794345 C361.426257,428.1271 365.629957,416.161507 366.694418,404.266339 L367.845592,404.302868 C368.96022,422.348189 371.975198,442.256489 372.523376,460.886274 C373.144644,463.114543 372.998463,465.781159 374.076546,467.808518 C393.244498,476.520682 412.832719,486.01822 432.201668,493.98154 C427.414249,478.78548 427.231523,457.909162 438.560531,445.397982 C445.138665,438.859293 452.721791,433.270357 459.68365,427.133487 C457.417848,423.77282 448.994182,422.238602 448.153643,418.476116 C459.226835,414.202224 472.967826,408.94205 483.766929,404.22981 C469.441215,407.645271 454.932775,412.284452 440.625334,415.389417 C435.94755,413.179413 431.415947,410.056184 426.738163,407.718329 L426.208257,406.037995 C447.916099,402.531212 471.122294,399.134016 491.843415,391.225489 C496.795288,388.960692 504.195689,386.476721 506.826943,381.417455 C506.285639,379.565813 504.80992,378.418629 503.249503,377.361044 L502.779687,377.045841 L502.287603,376.717375 C501.797482,376.388421 501.31618,376.055881 500.870077,375.700668 C487.202177,367.079827 472.200377,360.340228 456.851398,355.299227 C450.656988,353.746745 445.029029,351.372361 438.542258,351.116658 C433.334569,351.134922 427.560429,350.039052 423.120189,353.326662 C419.301217,356.157658 419.374307,360.011467 419.191581,364.340152 C416.176603,365.034203 414.312799,361.6918 412.741356,359.682706 C406.455583,350.239962 402.98379,336.7425 406.839308,325.783803 C412.595175,312.085431 431.01395,309.23617 444.060582,309.583195 C476.805071,316.596762 504.488051,338.879446 524.368633,365.088997 C526.104529,366.915446 526.543072,369.947352 529.320506,369.965617 C529.21087,365.983957 525.008174,362.42238 523.107824,359.025184 C508.745565,339.336058 489.522796,318.971146 466.773416,309.254434 L466.499327,307.555836 C471.87147,307.501043 476.585799,305.601535 481.537672,303.79335 C493.396586,299.994335 502.02125,290.204566 513.368531,286.095054 C525.446716,284.688688 538.200987,285.638442 550.0599,288.250265 C565.664696,293.090356 583.206386,301.966901 587.555263,319.172055 C587.591809,320.304454 588.267895,320.870653 589.583521,320.852389 C593.512129,309.254434 605.553769,300.450948 617.668498,299.829955 C631.829759,296.122262 645.040844,291.044733 659.65892,289.967127 C659.934766,289.965371 660.218552,289.96294 660.505827,289.963518 L660.851947,289.965893 C663.456139,289.998084 666.198751,290.393533 665.835057,293.8392 C663.404801,302.624423 657.813388,310.49642 652.934605,318.222302 C645.022572,329.655876 636.598906,340.742424 627.572244,351.317567 C621.067201,358.495514 615.366152,365.709989 607.161757,371.079751 L606.723215,372.321737 C621.944285,394.202602 626.512434,421.234055 622.382828,447.260961 C618.764854,474.529852 608.641837,500.976842 596.05202,525.286885 L599.08527,525.250356 C605.224862,521.195638 610.925911,516.574721 616.626961,511.935539 C654.94459,478.493248 690.064516,440.704007 718.862125,398.713932 C735.636366,373.527193 749.907262,347.463759 755.151496,317.290812 C755.754492,308.50559 757.892386,299.720368 759.518646,291.062997 C760.943909,286.095054 762.387444,281.510666 767.193136,278.825785 C775.032079,275.59297 783.857742,275.063299 792.135227,276.725368 C811.431086,280.980996 828.698688,292.597215 842.092499,306.843521 C870.433293,337.436551 884.302192,379.664064 891.940136,419.827689 C899.596353,462.183054 900.91198,504.739328 899.50499,547.697421 C897.093007,598.691891 892.141134,647.531152 882.657658,697.70372 C879.56959,709.466055 877.066244,722.835666 871.219014,733.593454 C869.318664,737.045443 867.326952,739.401563 863.380071,740.533962 C861.296996,754.067953 859.451464,767.035745 853.220509,779.473866 C848.159,790.90744 838.310072,800.240597 828.917959,808.276975 C825.080714,811.107972 818.794942,815.911534 813.843069,813.518885 C809.348011,809.537225 810.170277,803.74738 810.499184,798.322825 L808.562289,798.815966 C802.715059,805.318127 796.447559,812.44128 787.603624,814.59649 C780.988945,816.386411 773.643362,810.760946 772.272917,804.386637 C771.066926,790.761324 771.651649,776.880308 771.925738,763.218465 C772.327735,757.538207 771.761285,752.058858 773.186547,746.506452 C773.131729,725.831043 775.74471,705.356544 776.23807,684.662871 C777.535424,678.72691 776.968974,672.480452 777.498879,666.41664 C777.590242,660.407621 778.449054,653.795874 777.316153,647.914706 C776.530432,646.617927 775.598529,646.581398 774.520446,647.823384 C769.550301,653.448848 766.389142,661.211259 763.118348,667.914329 C762.113355,670.343506 760.541912,672.827478 760.615002,675.512359 C760.706365,692.626191 759.829281,706.835968 758.76947,723.9498 C757.325935,731.292127 756.613304,740.040821 752.50197,746.415129 C749.925535,750.853402 744.918844,750.122822 742.854041,754.926384 C737.573261,769.501451 731.981847,783.948667 725.915346,798.213238 C723.539909,803.126387 721.29238,807.72904 717.199319,811.473262 C713.161075,813.226653 709.853736,812.185577 706.802212,809.263258 C696.880194,800.094481 688.602709,788.459998 682.700661,776.350637 C679.356776,765.738965 679.046142,753.921837 678.095967,742.890082 C677.425972,740.398805 677.246521,737.715797 677.10887,735.030988 L677.072028,734.298865 C676.761951,728.077868 676.457281,721.939975 670.567658,718.251278 C668.497739,720.166858 666.546752,722.132936 664.620225,724.082855 L663.658563,725.056159 C657.895571,730.884201 652.21101,736.466824 644.054124,740.004292 C641.934503,740.990574 639.778337,738.141313 638.755072,736.643624 C636.123819,730.634605 636.946085,724.296826 634.990918,717.995575 C634.86562,718.679189 634.823854,719.352366 634.798709,720.017236 L634.776627,720.679416 C634.730046,722.108482 634.65679,723.501885 633.876289,724.881289 C631.811486,729.940555 630.112135,738.543132 624.703447,740.935781 C618.600401,743.638926 613.739891,733.356015 608.185022,737.282882 C599.633448,742.415205 592.488864,750.323731 585.764549,757.593001 C587.865897,774.907742 590.789513,793.153973 593.183222,810.486979 C593.073587,812.660454 594.517122,814.541697 596.527107,815.144425 C605.699949,818.267654 614.50734,822.103198 622.364555,827.838249 C634.205196,835.637189 644.09067,848.860684 642.994314,863.673189 C642.153775,876.695774 634.735101,885.188765 626.347981,894.321012 C623.24164,897.005893 624.210087,899.800361 623.716727,903.471524 C629.746683,902.19301 634.9361,899.983006 641.368053,900.549205 C666.383234,898.759285 689.205704,920.968911 688.602709,945.863418 C689.571156,965.899569 675.811893,984.620677 656.881485,990.721019 C643.597309,995.013175 628.10215,993.259783 616.499052,985.314728 C615.256516,983.470014 617.906042,981.369597 618.710036,979.780586 C623.406093,973.095781 626.256618,964.876758 627.389519,956.84038 C629.545685,937.425221 619.587121,917.681302 603.013878,907.471449 C592.123412,900.275238 580.282771,897.955647 567.382319,899.709038 L567.290957,900.750115 C587.281174,899.435071 606.577034,915.92791 611.145182,934.904721 C613.630255,945.315483 612.899351,956.237651 608.422566,965.990892 C602.301247,979.415296 589.693157,989.132007 575.312625,992.236972 C563.910527,994.026892 553.495148,992.638791 543.335586,987.141177 C542.897043,985.661753 543.116315,984.492826 544.029944,983.61613 C557.186212,968.347012 558.995199,945.278954 549.877174,927.635452 C542.73259,914.813776 531.092948,904.786568 516.803779,900.859702 C509.69574,897.973911 499.773721,900.129122 492.482956,899.800361 L492.464684,900.677057 C499.170726,900.494412 506.826943,900.074328 513.167533,902.503506 C527.895244,907.343597 539.553159,919.672132 543.518312,934.649018 C546.131293,945.406806 545.235935,957.497902 540.210972,967.433787 C532.353757,982.757699 516.255601,993.314577 498.841819,992.894493 C489.650704,993.259783 478.961237,990.3192 471.962833,984.291916 C474.941266,980.109347 477.7187,975.835455 479.801776,971.104951 C487.384903,953.698887 484.095836,932.621659 471.652199,918.265766 C466.645508,912.329805 459.172017,905.699793 451.479255,904.001195 C450.675261,905.571941 450.401172,907.380126 450.693534,909.407485 C465.329881,921.078498 472.255195,940.110102 467.303322,958.374597 C462.461084,977.844549 444.1154,992.857964 423.924183,992.876229 C415.482245,993.332841 405.523681,991.177631 398.726276,986.081837 C408.812748,973.881154 414.203163,958.173688 410.987187,942.429693 C409.360926,930.886532 402.545248,919.653867 393.664767,912.165424 C392.69632,909.389221 395.217938,909.297898 396.917289,907.891532 C408.630022,899.672509 424.874358,898.521846 438.195079,902.887061 C432.457485,894.868947 423.75973,886.595131 422.297922,876.4766 C419.100218,862.01112 425.678352,850.029611 435.3811,839.892816 C435.344555,834.176029 433.736566,827.564282 429.899321,823.052952 C417.620138,806.669699 401.521983,791.27273 382.810846,782.597095 C372.980191,778.96246 364.446889,773.574434 358.490024,764.789212 C355.12062,759.929281 352.601751,753.94634 350.101608,747.773193 L349.449275,746.159105 C345.857762,737.264639 342.1559,728.145596 335.886825,721.557151 C329.966504,717.411111 323.826913,713.557302 317.870047,709.447791 L316.262059,709.995726 C305.609136,718.780948 295.321666,727.164351 283.280026,734.123124 C279.64378,736.113954 274.655362,738.798835 270.41612,737.958668 C267.225476,736.97114 267.063882,734.204295 267.055634,731.426037 L267.055143,730.785502 C267.055058,730.643474 267.054793,730.501773 267.053963,730.360638 C267.163598,723.365336 270.544028,718.269542 273.522461,712.333581 C269.959305,714.148615 266.476449,716.118826 262.993593,718.098736 L260.903236,719.286682 C253.9311,723.242622 246.894723,727.120973 239.151712,729.75791 C236.39255,730.525018 234.017113,730.214522 231.349314,729.39262 C231.440677,726.068482 230.929044,723.109633 232.774576,720.16905 C236.31946,711.10986 242.057054,703.128276 246.058752,694.45264 C230.691501,701.575793 214.940524,708.95465 199.609818,716.18739 L199.701181,717.465904 C208.417208,729.264768 218.01032,741.812477 223.21801,755.620435 C223.948913,758.962838 225.246268,763.528961 222.012018,765.939875 C215.169166,772.19804 212.539787,780.558832 210.16608,789.126645 L209.870412,790.198563 C209.772109,790.556137 209.673964,790.913933 209.57569,791.271815 L209.241505,792.485628 C207.899485,797.340601 206.474222,802.182722 204.251057,806.669699 C202.405525,810.012102 200.176268,813.117066 195.863936,812.112519 C195.078215,811.235823 194.676218,810.08516 194.676218,808.697058 C194.913761,802.65151 193.488499,796.898194 190.564884,791.619755 C189.378993,789.845055 188.006396,788.306089 186.638958,786.790368 L185.894748,785.96464 C183.794137,783.624371 181.789166,781.247348 180.588048,778.049235 C173.69928,760.789287 170.519848,741.575038 167.523143,723.401865 C161.401824,724.863025 155.499776,727.785344 149.579455,729.977084 C139.620892,734.451885 127.70716,740.223465 122.261927,750.177615 C117.456235,761.757305 115.135615,776.478489 107.534216,786.56049 C105.231869,789.957686 101.796622,790.304712 98.5441,792.350335 C93.4277736,798.34109 93.8845885,804.770192 92.6420521,812.149048 C83.2682113,805.117217 73.4741009,794.195049 75.3561781,781.48296 C76.8545308,767.693266 82.9393046,752.478942 91.8015128,741.721154 C92.5131822,740.638102 93.8974901,739.5528 95.3190155,738.422645 L95.7459542,738.08221 C98.2355299,736.087994 100.644487,733.943363 99.5673653,731.419979 C95.8032109,730.104935 91.1071542,732.387997 87.4891806,733.666512 C72.3777452,739.419828 59.6782923,748.351166 45.5535771,755.839609 C41.3508805,757.720852 37.4953631,759.547302 32.7810338,758.360109 C28.0118868,756.150105 27.774343,750.250673 23.1148315,747.419677 C18.0898682,743.547604 8.77084517,744.424299 6.12131902,750.743815 C5.58058559,751.307308 5.28614367,752.312482 5.0350308,753.389492 L4.94787138,753.771994 C4.44608058,756.013629 4.02673833,758.37533 1.91862238,757.629529 C1.30466322,755.730022 1.01814894,753.721415 0.768017433,751.700685 L0.582692723,750.18438 C0.426360529,748.921424 0.255816317,747.663203 0,746.433394 L0,733.776099 C1.40698975,726.232862 3.45352029,719.383676 9.55656672,714.287882 C16.1347006,708.863327 26.0384466,706.96382 34.0052976,704.644229 C45.6632127,703.530094 56.1699543,705.30175 67.6085982,707.000349 C84.2914766,704.333732 100.499268,698.306449 116.597423,693.247184 C116.761876,691.822553 116.268516,690.799741 115.153888,690.215277 C105.341505,683.530472 95.529122,676.53517 85.0223804,671.001028 C81.0937726,668.77276 76.7814404,668.370941 72.5787438,667.037633 C68.6318635,664.078785 70.0205806,656.900838 70.6966666,652.718268 L70.8627986,652.240262 C70.9750476,651.922144 71.0899112,651.605169 71.2051453,651.289543 L71.3779937,650.817144 C71.4627887,650.58554 71.5471754,650.354726 71.6302552,650.124787 L71.7944058,649.666097 C73.2243066,645.625063 74.0593183,641.874124 69.3444946,638.873781 C59.1666597,635.093031 50.4323597,638.435433 40.5834315,640.462792 C42.4472361,637.357828 46.1017549,635.147824 49.0984604,633.211788 C56.498861,628.663928 66.0554277,623.769043 74.9176358,624.280449 C81.8359211,625.879998 88.6541125,626.00739 95.6504929,626.015492 L98.3979192,626.015576 C100.133521,626.31046 101.939014,626.493727 103.763865,626.665221 L104.607294,626.7439 L105.029695,626.783295 L105.875178,626.863556 C112.076696,627.463337 118.277323,628.368161 122.517743,633.449226 C126.22708,639.914857 124.144004,647.750326 126.281898,654.636041 C126.702168,661.978368 128.639062,671.274996 135.125833,675.731533 C140.132524,679.347903 145.815301,678.489471 151.644258,679.420961 C165.440067,679.749722 180.222596,679.000877 193.598135,675.548888 C208.179665,667.275071 222.779467,658.599436 236.356005,648.754873 C241.216515,644.974122 245.876026,641.339488 249.347819,636.225429 C251.577076,631.695834 247.703286,625.303261 245.985662,621.065898 C240.028796,609.230505 233.158301,597.83346 225.940626,586.710382 C224.899088,584.902197 223.071829,583.00269 223.053556,580.847479 C233.50548,582.820045 243.409226,584.591701 253.93424,586.235506 C262.485814,587.587078 271.037388,587.112201 279.57069,588.335923 C287.409633,587.331375 298.59246,587.915839 303.928058,581.103182 C306.321768,576.847555 304.147329,574.582758 300.693809,572.226638 C285.819917,562.290752 268.132046,554.40049 253.970785,542.254601 C248.288009,537.268394 243.390953,531.97169 240.412521,524.939859 C239.937433,522.309772 238.128446,516.483398 241.929146,515.624967 C246.228426,514.803064 250.678735,515.460586 255.10603,516.257568 L256.370195,516.487914 L256.89974,516.585103 L257.957426,516.777772 C262.888309,517.666797 267.743606,518.36986 272.279925,517.013068 C275.605537,515.113561 275.715172,513.798517 274.892906,510.236941 C271.341215,503.803899 266.113455,498.12494 260.788414,492.499808 L259.398104,491.033142 C253.372862,484.678894 247.398742,478.315617 243.756405,470.931747 C244.395946,468.959181 246.003934,468.155544 248.543825,468.520833 C261.133642,470.402076 272.846375,474.694233 284.540835,479.607382 L284.102293,477.32432 C279.18994,471.832229 274.313163,466.263089 269.425539,460.681682 L266.491292,457.331884 C251.320449,440.022343 235.956132,422.719426 219.015313,407.353039 C212.601632,400.887407 205.32914,403.791462 197.380561,401.14311 C189.998433,400.156828 183.018303,397.344095 175.636175,396.686573 C151.278807,417.96471 123.321738,442.694837 99.2567312,464.301735 C99.1619844,465.476074 99.8729362,466.566933 100.668679,467.658338 L101.184815,468.360857 C101.755515,469.143355 102.290659,469.935317 102.527526,470.767366 C109.288385,484.02739 101.248444,501.396925 86.8130946,505.03156 C80.6369578,507.150241 75.5206314,505.122882 69.5272206,503.862632 C67.5537804,504.702799 66.5487877,507.058918 64.9225268,508.465285 C61.3045532,511.953803 56.8277677,513.835046 52.040348,515.168354 C42.7578702,516.519927 32.4703997,511.734629 27.7012527,503.588664 C21.2875721,493.378812 23.4437382,478.730686 32.9272146,471.114392 C34.571748,469.671497 37.0568208,469.013975 38.2993572,467.224054 C37.5319083,463.58942 36.6548238,460.155695 36.9289127,456.374944 C36.7461867,443.11492 48.8974618,431.772669 62.1268199,432.813745 C69.2348591,432.795481 73.693372,435.991767 78.736608,440.521362 C80.0156896,439.936898 81.1851356,439.13326 82.2449461,438.110449 C102.088983,420.339095 122.225382,402.805179 142.032874,385.033825 L142.069419,383.846633 C136.039463,377.947201 125.094179,371.737273 122.84665,363.262547 C123.285192,350.67831 124.783545,337.527873 125.368268,324.834049 L125.383343,324.510943 L125.415542,323.864764 C125.670694,319.020303 126.284182,314.244066 130.703866,311.281793 C138.688989,305.674593 148.720643,302.624423 157.984849,299.884748 C160.890191,295.428211 162.863631,290.843823 167.157691,287.428363 C172.274017,282.789181 180.405322,283.976373 186.654549,284.889598 C194.182858,284.999185 200.651356,286.624725 208.051756,285.437533 C211.413914,284.889598 213.972077,283.264058 217.51696,284.067695 C226.598439,286.350757 231.733038,292.633744 238.128446,298.770614 L239.297892,298.843672 C291.100697,253.091111 343.67095,206.352268 395.565117,160.471856 L395.254483,158.736729 C383.450387,144.344306 365.817334,135.869581 347.179288,135.668671 C328.851876,135.084207 311.858364,140.618349 295.449574,148.252908 C294.173273,145.079651 294.810724,140.622734 295.569837,136.248714 L295.739804,135.278629 C296.222921,132.53707 296.701644,129.868503 296.728656,127.614029 C299.908087,106.335892 306.248677,84.7472582 316.700601,65.8435056 C327.737248,45.9534702 343.817131,29.1501345 363.990075,18.4106113 C385.02183,6.86745023 409.306108,2.7214098 433.06048,2.77620329 C439.017346,3.30587365 445.833024,3.39719613 451.534073,4.87662024 C450.52908,8.38340334 447.769918,11.1961356 446.490837,14.6846542 C440.077156,29.8624498 440.351245,47.5607458 441.831325,63.7065596 C443.914401,78.9208842 446.673563,94.6466146 451.570618,109.203417 L453.087243,109.239946 C462.004269,101.806297 470.610661,93.8795058 479.308416,86.1718888 C489.504523,72.5648398 499.079363,58.4646495 509.184107,44.7845425 C535.642824,31.1044355 562.631445,17.7713539 589.236342,4.31042089 C592.306138,2.81273228 595.540387,0.347025411 598.975635,0 Z M589.053616,921.060233 C594.15167,928.366032 597.988915,936.36588 600.528805,944.931929 L602.155066,945.205896 C605.261407,934.521166 598.701546,924.877513 589.053616,921.060233 Z M730.070097,916.818971 C734.692643,924.607541 739.021695,932.359458 741.479715,941.119309 L743.020564,941.339221 C743.735958,937.069252 744.231231,933.074174 742.690382,928.914162 C739.938866,923.801194 735.334663,919.329639 730.070097,916.818971 Z M652.97115,917.279483 C653.31833,919.854777 655.017681,921.388994 656.27849,923.763379 C659.439649,928.713057 661.540997,934.338522 663.67889,939.836135 L665.031062,940.146631 C668.758672,930.247275 661.723723,921.115027 652.97115,917.279483 Z M440.753242,917.242954 C441.082149,919.398164 442.324685,920.950646 443.384496,922.79536 C446.819744,928.201651 449.085545,934.028025 451.698526,939.836135 L453.014153,940.128367 C456.010858,929.772398 449.779904,921.553375 440.753242,917.242954 Z M370.971008,916.858143 C374.662949,924.391745 379.155114,931.283799 381.70128,939.532268 L382.847055,939.917196 C386.375314,930.257323 380.064459,919.992561 370.971008,916.858143 Z M519.636031,915.526091 C523.802183,923.434618 528.662693,930.868267 530.800586,939.781341 L532.700936,939.65349 C533.57802,933.936703 533.724201,928.658263 529.813866,923.982553 C527.036432,920.80453 523.546366,917.206425 519.636031,915.526091 Z M511.614362,817.043933 C489.614159,820.313277 466.115603,828.221804 449.46927,843.509186 C439.528979,852.148293 430.794679,866.796418 432.822937,880.330409 C433.919292,883.490167 434.577106,892.257124 438.688439,892.896382 C442.361231,871.636509 457.929481,856.422185 476.439619,846.760267 C505.968131,831.911232 543.116315,830.541395 573.339185,844.057121 C588.541983,851.015894 603.817872,863.63666 608.934198,880.056441 C610.121917,882.850909 609.482376,885.919344 610.743185,888.62249 C611.675088,888.275464 612.460809,887.599678 613.063805,886.576866 C620.007391,875.143292 621.048928,860.714341 613.940889,849.061593 C604.621866,833.500243 585.143281,823.984441 568.076678,819.856665 C561.096547,818.011951 553.8606,816.514262 546.624653,816.495998 C534.290652,814.030291 523.674274,816.258559 511.614362,817.043933 Z M874.398446,439.315905 L874.325355,439.407228 C874.946623,444.229055 875.567892,450.402454 873.210727,454.858991 C873.229,467.059674 870.871835,478.876802 870.433293,491.09575 C865.170786,541.615344 861.406631,584.153353 854.134139,635.348733 C851.795247,653.21141 848.469635,672.55351 844.742025,690.197013 C844.242834,691.721904 843.807964,693.452773 843.355912,695.257384 L843.128076,696.165223 C841.862954,701.185401 840.365156,706.596587 836.939628,709.6487 C834.282728,709.412864 833.226844,706.672954 832.42375,703.755804 L832.275804,703.207329 C831.717507,701.101237 831.246272,698.97871 830.361494,697.70372 C826.944519,710.123577 823.198637,722.780872 817.479315,734.360562 C815.980962,737.191559 813.020802,742.451734 809.329738,742.159502 C804.195139,740.588755 805.766582,730.926837 801.837974,730.031877 C800.522348,736.205277 802.842967,740.935781 802.641969,746.74389 C803.025693,755.401261 804.103776,764.442186 807.246662,772.569887 L809.494191,775.163445 C812.436079,774.944271 814.245066,771.327901 815.578965,769.044839 C823.034184,751.218692 827.492697,731.876591 830.982762,712.936309 L831.896392,713.10069 C833.888104,718.580039 836.628994,725.648398 841.416413,729.283033 C846.130743,731.785269 848.743723,727.803609 850.863344,724.242032 C855.83349,714.19656 858.117564,702.909102 860.054459,691.986933 C869.081121,640.755024 870.41502,583.824592 873.539634,531.478549 C874.106084,509.579419 874.508081,487.314999 874.599444,465.415869 C876.225705,460.721894 875.20244,455.973125 875.476529,450.859066 C875.293803,446.749555 876.207432,443.169714 874.398446,439.315905 Z M546.368836,527.131599 C527.438429,528.35532 509.969829,536.519549 498.677366,552.080899 L497.16074,551.660816 C487.457993,537.615419 469.879757,529.031106 453.160334,527.551682 C449.688541,526.565399 448.48255,527.442095 446.490837,530.145241 C435.618643,543.113032 429.807958,560.135542 432.055488,577.084993 L431.909307,579.404584 C424.435816,579.532436 415.756334,578.308715 407.77121,580.884008 C397.648193,583.641947 386.629819,589.066502 379.631415,596.975029 C380.471954,613.540926 387.269359,630.033765 399.895722,641.138578 C401.247894,642.672796 404.372507,643.951311 404.116691,646.234373 C388.74944,657.521831 380.800861,675.092275 379.540052,693.831647 C393.244498,707.621341 412.723083,713.703418 431.927579,711.329034 C431.854489,719.07318 431.01395,726.342449 432.98739,734.214447 C435.965823,744.58868 441.30142,756.33275 449.505815,763.56549 C467.632228,762.944498 486.526091,754.031424 497.142468,739.054538 L498.677366,738.762306 C509.62265,754.250598 527.785608,762.433092 546.387109,763.675077 C559.908828,751.218692 567.089958,729.794439 564.586613,711.566472 C566.534752,711.532051 568.468322,711.558529 570.398378,711.586025 L572.052108,711.608447 C576.736698,711.664766 581.419186,711.626183 586.257909,710.634983 C597.623463,707.456961 608.185022,702.342902 616.681778,693.996028 C615.293061,675.713268 608.075387,658.270675 593.091859,647.056275 C590.405788,644.937594 593.530402,643.494698 595.010482,642.070068 C608.568747,630.892197 615.475787,614.088861 616.645233,596.828913 C607.74648,587.806252 595.321116,581.925085 582.932297,579.678552 C576.829251,578.582682 570.580023,579.769874 564.64143,579.148881 C566.706234,562.290752 561.498544,545.37783 551.119711,532.026484 C549.584813,530.18177 548.561548,528.263998 546.368836,527.131599 Z M460.284138,687.744444 L461.955175,688.254612 C470.89798,695.83425 482.136166,700.061356 493.796701,701.099912 L494.586313,702.976601 C493.576345,712.432928 492.033849,721.470189 486.98401,729.705757 C480.630396,740.965892 468.382242,748.017142 455.675012,749.347222 C453.306179,747.834939 452.112581,745.794267 451.029161,743.298088 C446.695482,734.934978 444.840814,725.241787 446.420036,715.931223 C448.017621,705.47278 453.379631,695.688488 460.284138,687.744444 Z M540.047523,694.759516 C551.940298,709.998785 553.336248,732.354592 541.7698,748.160989 C538.887253,750.228261 537.400656,749.075711 534.318687,748.545172 C526.142405,747.667039 518.346836,742.837307 512.980584,736.653786 C505.021853,727.250443 501.667946,713.236901 501.958013,701.217454 C512.672388,700.04661 522.806627,696.991438 531.291106,690.057845 C535.315795,685.868418 537.654465,692.216589 540.047523,694.759516 Z M556.946266,650.269489 C571.056294,650.050807 584.855609,655.208054 593.354525,666.798193 C597.594845,672.556816 601.469619,681.395208 601.213738,688.393028 C594.286665,694.206321 584.307292,697.194974 575.278336,696.921621 C562.61221,697.322538 550.110579,690.689188 540.807465,682.543288 L540.551583,681.121856 C545.504715,674.652517 549.525707,667.92805 551.773808,660.055502 C552.116184,659.148435 552.23605,657.907278 552.337611,656.607579 L552.369312,656.195523 L552.417708,655.574359 C552.680085,652.330297 553.159274,649.171716 556.946266,650.269489 Z M440.022553,650.047222 C443.721448,650.752899 442.12836,653.231813 442.897437,655.964047 C444.380657,665.463537 448.793695,674.221162 455.05618,681.531245 C454.433594,684.534894 449.690951,686.85096 447.365409,688.768952 C431.782442,699.734077 410.925803,699.372192 394.958297,689.420346 C393.749748,688.515632 393.273652,687.556636 393.530011,686.525263 C395.52595,674.221162 402.154662,663.002717 413.526016,657.067798 C421.875996,652.091874 430.592203,651.205255 440.022553,650.047222 Z M511.832282,599.561447 C531.467509,604.94607 546.230426,624.11168 546.029694,644.554996 C546.723131,660.946155 537.799687,677.264302 523.912691,685.8797 C511.138844,694.221303 493.821158,695.55377 479.861168,689.566798 C466.393884,684.072657 455.901082,672.372509 452.196666,658.281223 C447.853559,642.839218 451.776954,625.40764 462.598227,613.524962 C474.623891,599.835241 494.423354,594.395859 511.832282,599.561447 Z M818.100583,335.208282 C816.912865,335.555308 817.899585,339.317794 818.100583,340.15796 C821.298287,351.134922 822.102281,364.449739 824.34981,375.974636 C827.711968,394.604421 829.06414,411.206847 831.841574,429.233904 C832.682113,445.927653 835.459548,461.306358 834.107376,478.310603 C834.00878,478.792709 833.934278,479.286081 833.866074,479.779387 L833.808742,480.201941 C833.440711,482.945005 833.110377,485.58558 829.740226,486.164336 C826.798338,484.319622 825.172077,481.561683 823.436181,478.657628 C811.632085,456.192299 803.665234,431.425643 795.442566,407.499155 C797.434279,429.708781 801.490795,452.648987 801.819702,474.657704 C803.50078,487.223677 802.733332,500.794197 800.686801,513.287111 C799.700081,516.793894 797.690096,522.547211 793.085402,522.072334 C787.512261,520.538116 783.181656,514.109014 779.929134,509.615948 C769.422392,493.926746 759.792735,472.539022 752.227881,455.79048 C751.387342,456.119241 751.423887,457.178582 752.319244,458.931973 C758.221292,482.182676 763.812706,513.031408 767.960585,536.994426 C768.929032,550.25445 772.766277,565.907122 769.733027,579.002765 C767.796132,582.217317 765.713056,581.066653 763.282801,579.258468 C757.252845,572.500605 752.776059,563.82497 748.55509,555.825121 C739.638064,538.199883 731.65294,519.734478 723.941906,501.543041 C723.558181,500.337584 722.955186,499.38783 722.132919,498.657251 C727.907059,525.323414 733.388837,551.715609 737.372262,578.728798 C739.181249,590.874687 740.752692,603.970331 738.870615,616.189278 C737.536716,617.851347 736.056636,618.417546 734.448647,617.942669 C729.862226,614.600267 727.340608,610.107201 724.343903,605.43149 C711.516542,583.130541 701.393525,558.838763 691.270508,535.241035 C691.36187,547.313866 695.217388,559.076201 695.710748,571.185561 C697.830369,582.180788 698.543,593.614362 700.297169,604.573059 C701.028073,623.129786 704.627774,644.280072 700.644348,662.526302 C700.44335,664.553661 698.689181,666.197466 697.245646,667.494245 C692.714042,668.279618 689.004706,662.581096 686.665814,659.476132 C675.79362,642.873706 668.009495,623.513341 660.207098,605.358432 C659.35581,603.905868 658.860616,602.34814 658.411124,600.778516 L658.077725,599.600525 C657.68744,598.227 657.272734,596.862219 656.625669,595.568663 C656.808395,602.052559 659.275195,607.769346 660.682185,614.034067 C665.652331,632.225505 670.384932,650.563058 675.519531,668.699702 C678.662418,673.85029 682.390027,679.055671 687.213992,682.745099 C690.978146,685.265599 697.446644,685.466509 700.059625,681.119559 C705.705857,673.229297 707.734115,662.234071 708.629472,652.754797 C710.365368,644.754949 710.475004,636.353281 711.22418,628.207316 L712.612897,628.353432 C718.624581,634.380715 725.860528,639.896593 734.503465,641.156843 C741.081599,641.595191 746.179653,637.102125 749.066723,631.604512 C755.297677,619.020275 755.608311,606.472566 756.193034,592.792459 C759.26283,592.134938 764.12334,593.504775 767.284499,591.422622 C774.611809,588.043691 778.522144,578.911443 779.764681,571.441264 C783.273019,557.249752 781.464032,540.720383 781.09858,526.346226 L783.729834,526.674986 C789.41261,531.423755 799.298084,537.140542 806.771575,533.79814 C810.882909,531.07673 812.344716,526.802838 813.166983,522.163656 C814.957697,510.510908 812.381261,499.22345 810.334731,488.045579 C812.417806,488.502191 812.764986,490.292112 814.299884,491.716742 C819.215211,496.922124 825.976071,503.241639 833.193746,504.574947 C841.507776,504.958502 843.188855,495.789725 844.63239,489.543267 C846.953009,461.890822 840.100786,432.430191 835.112368,405.197828 C830.361494,384.540684 826.067434,363.335605 820.000933,343.025486 C818.99594,339.8292 820.40293,337.217377 818.100583,335.208282 Z M602.045447,602.348793 C602.834558,608.720855 598.778895,616.543618 595.383883,621.887336 C585.694335,635.678169 570.462659,640.305718 554.753846,643.611111 C553.505949,640.507715 553.524301,636.908509 552.771892,633.62148 C550.881697,623.888935 545.981868,615.38673 539.632278,607.894507 C555.598011,590.798282 583.327002,587.805065 602.045447,602.348793 Z M418.377076,593.041667 C432.140892,593.351796 444.257442,599.846266 454.580303,608.456912 L455.05618,609.971072 C447.387245,619.621563 443.781565,629.509211 441.951271,641.586007 C436.844749,642.406937 430.438718,640.327248 425.405408,638.977273 C409.664874,634.197635 397.493415,620.624922 394.400217,604.571176 C394.272097,602.746886 394.821185,601.469884 396.029179,600.721925 C402.61824,595.924044 410.250568,593.44301 418.377076,593.041667 Z M540.7706,542.472222 C545.18589,544.207075 548.269295,550.854302 549.984325,555.072734 C555.202395,572.896066 546.955655,590.043719 535.278855,603.155556 C532.99823,602.64423 531.483895,600.59893 529.422211,599.430187 C521.832291,594.170843 512.600321,591.029846 503.423087,590.262858 C500.595112,575.233552 508.695891,558.578963 521.540371,550.324715 C527.086851,546.727178 534.038195,542.6731 540.7706,542.472222 Z M459.00726,541.984543 C473.82282,545.015539 486.345062,555.192338 491.18651,569.832968 C493.115809,575.766372 495.427328,583.977616 494.280669,589.9845 C481.248801,591.252007 472.603357,594.870833 462.501839,603.155556 L460.991162,602.604465 C454.366022,595.936274 449.087752,588.000575 446.284808,578.944326 C442.935836,566.287621 445.957191,552.877759 454.256817,542.866287 C455.767494,541.488562 457.350975,541.194647 459.00726,541.984543 Z M407.953936,515.716289 C389.937158,519.204808 370.805752,522.967294 354.086329,530.821027 C349.371999,533.524172 342.044689,537.122278 344.109492,543.807083 C344.548034,547.350395 351.601256,549.048993 350.029813,552.117428 C341.69751,555.514625 331.958217,559.788516 325.873443,566.601173 C322.931556,570.107956 323.571096,572.51887 327.079434,575.112428 C336.197459,580.555248 347.672648,582.783516 358.124572,580.299545 C362.071452,579.368055 367.096416,579.623758 370.677844,577.724251 C361.925271,575.459453 351.875345,573.888707 344.401854,568.738119 C341.496511,566.34547 342.117779,563.916292 344.675943,561.596701 C349.280636,558.400415 355.200957,556.665288 360.554827,555.149335 C360.889824,553.924091 360.777524,552.695677 360.613145,551.452201 L360.511429,550.704213 C360.308147,549.204241 360.143693,547.679156 360.701008,546.108409 C362.034907,541.487492 365.561518,538.017238 369.106401,534.948803 C377.853919,527.95389 388.188052,523.573586 398.524008,519.468696 L400.246413,518.786697 C402.82923,517.76632 405.406659,516.755034 407.953936,515.716289 Z M595.924111,425.453153 C596.819469,431.955314 598.646728,442.000786 594.096852,447.480135 C588.998798,453.708328 580.849221,451.845349 574.124907,449.945842 C575.69635,454.840726 579.807683,462.292641 577.286065,467.224054 C575.129899,472.027617 568.752764,470.676044 564.604885,470.128109 C563.450057,470.164638 562.447257,469.759897 561.488896,469.334699 L561.012921,469.122344 C559.750872,468.561908 558.535948,468.089791 557.113122,468.703478 C559.525104,476.009276 562.302538,485.506814 559.14138,492.922199 C554.390505,501.634363 543.810673,500.830726 535.40528,499.533946 C527.072977,499.442624 520.239027,494.127656 512.144268,493.744101 C524.35036,500.337584 536.940178,510.090825 551.814069,511.89901 C557.752662,512.611325 562.795898,510.328263 565.317516,504.794121 C567.647855,498.29507 566.807415,491.875252 565.684593,485.409918 L565.500494,484.361066 L565.221052,482.786035 C565.066134,481.91037 564.913187,481.033567 564.769339,480.155317 C566.997849,480.510915 568.957591,481.425996 570.902185,482.369094 L571.874394,482.840517 C574.902424,484.299121 577.996086,485.611183 582.11003,484.776234 C585.846216,482.772731 585.881559,479.65806 585.574875,476.111093 L585.5302,475.61343 C585.499387,475.279876 585.466967,474.942854 585.435642,474.60291 C585.070191,469.178355 580.995402,463.22413 580.794404,458.274452 C588.523711,454.986842 597.678281,450.000635 600.56535,441.525909 C601.789614,437.051108 600.547078,427.38919 595.924111,425.453153 Z M713.75242,302.50619 L714.740016,302.512355 C715.232415,302.515142 715.722585,302.517192 716.209943,302.517192 C721.882715,302.626575 727.024808,308.077521 730.72126,311.887714 C734.911791,316.974049 739.90749,322.27915 742.798774,328.16763 C736.68682,347.893128 728.067866,366.615943 717.582388,384.408997 C696.812723,419.648726 668.924644,451.515796 639.078544,479.426827 C637.358413,480.812352 636.791136,482.580719 634.320735,482.708333 C640.762076,468.196784 646.691038,454.487382 652.674898,439.738835 C666.252952,404.663182 680.874064,365.886719 683.673851,328.277014 C683.435961,320.000326 685.357384,311.504872 692.622192,306.600844 C698.833485,302.442781 706.490793,302.459485 713.75242,302.50619 Z M629.892864,310.843445 C622.072194,313.400475 616.919322,324.852313 613.995707,331.975467 C611.598343,334.050313 608.812138,335.844617 605.991434,337.619049 L604.579847,338.505816 C600.8167,340.872549 597.097212,343.281189 594.261305,346.349624 C601.05871,343.938711 606.942486,340.742424 613.922617,339.737877 C618.600401,338.459362 623.424366,338.441098 628.065605,337.071261 C625.726712,333.564478 623.022369,331.354474 623.607092,326.697027 C623.022369,319.902635 627.243338,316.30453 629.892864,310.843445 Z M435.856187,323.70165 C431.891034,325.674216 428.072062,328.450419 424.32618,330.843068 L424.033819,332.158112 C426.866071,334.38638 432.713301,335.591837 436.258184,335.500514 C436.038913,331.573648 436.276457,327.610252 435.856187,323.70165 Z M521.646016,314.167584 C523.601184,313.893616 525.172627,314.240642 526.396891,315.20866 C528.059697,322.222226 531.860397,328.94356 538.146169,332.797369 C545.927876,335.140059 552.561535,332.522726 559.06585,329.155058 L559.861719,328.739226 C560.922202,328.180548 561.980345,327.606448 563.040581,327.035249 L563.836221,326.607679 C564.101611,326.465528 564.367201,326.323844 564.633061,326.182914 L565.431518,325.762672 C565.83122,325.553968 566.231683,325.347604 566.633143,325.144545 C569.666394,325.016694 572.918916,327.68331 575.239535,329.454966 C574.435541,327.719839 573.193004,326.660498 571.548471,325.765538 C558.118114,315.683537 541.106329,309.893692 524.386906,309.144847 C521.554653,308.304681 517.808772,312.925598 521.646016,314.167584 Z M627.825526,252.847222 C628.284577,265.346444 626.044408,277.318808 623.436998,289.472847 C622.592344,291.344097 622.041482,293.524194 620.792863,295.177434 C612.860461,296.449157 605.442195,297.884387 598.813498,302.716935 C594.902382,305.042372 592.423506,309.057383 588.897994,311.691667 C583.628088,301.590552 574.832669,294.868587 564.660097,289.981537 C564.109236,288.746149 564.660097,287.72877 566.312681,286.965736 C585.574464,276.464937 608.857535,263.202682 627.825526,252.847222 Z M405.669862,25.5337644 C377.932064,29.4971599 352.167706,44.1635496 336.873545,67.9804515 C326.421621,84.4002328 320.208939,104.089359 318.655769,123.358401 C326.238895,121.842448 334.096111,119.212361 341.953326,118.006904 C342.979528,117.940043 344.000049,117.870561 345.015266,117.803307 L346.231005,117.723983 C356.13914,117.089969 365.552381,116.856241 374.825723,121.586745 C384.163018,106.57333 397.428922,92.7653716 414.787886,87.5599905 C416.366638,86.9901382 418.006786,86.6277706 419.654536,86.2987175 L421.302827,85.9743184 C423.22414,85.5937567 425.131393,85.1795179 426.939161,84.4550263 C426.587921,82.2876395 426.219762,80.0983804 425.854812,77.8930616 L425.527766,75.9040955 C425.491645,75.6826524 425.455616,75.461066 425.419699,75.2393424 L425.205713,73.9073988 C422.587189,57.460914 420.80566,40.3259762 428.017244,24.8579781 C421.43911,23.122851 412.503812,24.5109527 405.669862,25.5337644 Z" id="Combined-Shape"></path>
            </g>
        </g>
    </g>
</svg>