<?xml version="1.0" encoding="UTF-8"?>
<svg width="32px" height="36px" viewBox="0 0 32 36" version="1.1" xmlns="http://www.w3.org/2000/svg" xmlns:xlink="http://www.w3.org/1999/xlink">
    <title>insignia</title>
    <g id="home" stroke="none" stroke-width="1" fill="none" fill-rule="evenodd">
        <g id="m-home" transform="translate(-284, -1817)" fill="#FFFFFF" fill-rule="nonzero">
            <g id="m-content-home" transform="translate(0, 111)">
                <g id="stat" transform="translate(180, 1645)">
                    <g id="Group-2" transform="translate(30.2222, 61.6802)">
                        <g id="insignia" transform="translate(73.7886, 0)">
                            <path d="M20.9217626,0 C20.314789,0.959595886 19.6152694,1.99703133 18.9859571,2.95726525 C18.4702528,3.27372772 17.927104,3.55190844 17.412038,3.870285 C17.0820639,4.15612208 16.7520898,4.44387324 16.4310511,4.73991878 C16.3436112,4.89942607 16.3078693,5.08764468 16.2376621,5.25608438 C16.2070262,5.36965358 16.1119273,5.53043693 16.175752,5.64336809 C16.4578576,6.14485903 16.7367718,6.64252179 17.0214304,7.14273667 L17.0310041,7.19250294 L16.9812207,7.18357053 C16.4853022,6.85945171 15.9964044,6.51427792 15.4992094,6.19462531 C15.2126361,6.17357034 14.8960652,6.32159311 14.606939,6.35796078 C12.6781541,8.04554796 10.7372426,9.78353944 8.81037252,11.4806971 C8.72165607,11.5700211 8.59464476,11.6504128 8.53401122,11.7614299 C8.51805503,12.048543 8.44720952,12.3401224 8.45040076,12.6265975 C8.48039841,12.7720681 8.58187981,12.9073303 8.65464005,13.0349361 C9.28331413,13.9830475 10.0070871,14.8730982 10.7104362,15.765701 C10.764049,15.83078 10.8017056,15.91819 10.8910603,15.9366929 C10.9599911,15.5921571 10.8770189,15.0447281 11.2114607,14.8360925 C11.4335709,14.6255429 11.5331376,14.2765409 11.5829209,13.9836855 L11.6492987,13.9875137 C11.8101371,14.60704 11.9811875,15.195941 12.152238,15.8058969 C12.1707471,15.8716139 12.1937241,15.940521 12.2301042,15.9979437 C12.4388112,15.3975582 12.7515526,14.7569769 12.8083567,14.1221379 L12.8485663,14.1234139 C12.8874994,14.7537868 12.9928103,15.4492386 13.0119577,16.1000283 C13.0336582,16.1778679 13.0285522,16.2710201 13.0662088,16.3418414 C13.7357307,16.6461813 14.4199324,16.9779565 15.096475,17.2561372 C14.9292541,16.7252969 14.9228716,15.9960296 15.3185852,15.5589796 C15.5483545,15.3305651 15.8132273,15.1353282 16.0563997,14.9209504 C15.977257,14.803553 15.6830247,14.7499586 15.6536653,14.6185246 C16.0404435,14.4692257 16.5204058,14.2854733 16.8976103,14.1208618 C16.397224,14.2401733 15.8904553,14.4022327 15.3907072,14.5106976 C15.2273158,14.4334961 15.0690304,14.3243931 14.9056389,14.2427254 L14.8871297,14.1840267 C15.6453681,14.0615251 16.4559428,13.9428517 17.1797158,13.666585 C17.352681,13.5874694 17.6111713,13.5006974 17.703079,13.3239634 C17.6743578,13.2257069 17.5703235,13.184235 17.4950102,13.1242602 C17.0176009,12.8231105 16.4935994,12.5876777 15.9574713,12.4115816 C15.7411053,12.3573492 15.544525,12.2744054 15.317947,12.265473 C15.1360464,12.266111 14.9343601,12.2278292 14.7792659,12.3426745 C14.6458721,12.441569 14.6484251,12.5761932 14.6420426,12.7274061 C14.5367317,12.7516512 14.4716304,12.6348918 14.4167411,12.5647086 C14.1971839,12.2348475 14.0759168,11.763344 14.2105871,11.3805265 C14.4116351,10.9020046 15.0549889,10.802472 15.5106978,10.8145946 C16.6544379,11.0595978 17.6213833,11.8379934 18.3157969,12.7535653 C18.3764304,12.8173682 18.3917484,12.923281 18.488762,12.9239191 C18.4849325,12.7848287 18.3381355,12.660413 18.2717578,12.5417396 C17.770095,11.8539441 17.0986583,11.1425416 16.3040398,10.8031101 L16.2944661,10.7437734 C16.482111,10.7418593 16.6467789,10.6755042 16.8197441,10.6123393 C17.2339669,10.4796293 17.5352198,10.1376456 17.9315717,9.99408907 C18.3534535,9.94496082 18.7989505,9.97813834 19.2131733,10.0693765 C19.7582369,10.2384542 20.3709548,10.5485364 20.5228577,11.1495599 C20.5241342,11.1891177 20.5477494,11.2088966 20.5937032,11.2082586 C20.7309265,10.8031101 21.1515318,10.49558 21.5746901,10.473887 C22.0693321,10.3443671 22.5307853,10.166995 23.0413835,10.1293513 C23.1415884,10.1287132 23.271791,10.1255231 23.2571113,10.2646134 C23.1722243,10.5715055 22.9769205,10.8464961 22.8065083,11.1163824 C22.530147,11.5157887 22.2359148,11.9030724 21.9206204,12.2724913 C21.6934042,12.5232367 21.4942709,12.7752583 21.2076976,12.9628388 L21.1923797,13.0062248 C21.7240401,13.7705838 21.883602,14.714867 21.739358,15.6240586 C21.612985,16.5766361 21.2593957,17.5005024 20.819643,18.3497192 L20.9255921,18.3484431 C21.1400434,18.2068007 21.3391767,18.0453793 21.53831,17.8833199 C22.8767156,16.7150884 24.1034279,15.3950061 25.1093064,13.928177 C25.6952178,13.0483348 26.1936894,12.1378671 26.3768665,11.0838429 C26.3979287,10.7769509 26.4726037,10.4700588 26.5294077,10.167633 C26.579191,9.99408907 26.6296126,9.83394375 26.7974718,9.74015346 C27.0712801,9.62722229 27.3795538,9.60871945 27.66868,9.6667801 C28.3426697,9.8154409 28.9458138,10.2212275 29.4136495,10.7188902 C30.4035718,11.7875891 30.8880019,13.2627126 31.1547895,14.6657387 C31.4222153,16.1453284 31.4681691,17.6319364 31.419024,19.132581 C31.3347753,20.9139585 31.1618102,22.6200485 30.8305596,24.3727147 C30.7226957,24.7836055 30.6352557,25.2506428 30.4310165,25.626442 C30.3646387,25.7470295 30.2950697,25.8293353 30.1572082,25.8688931 C30.0844479,26.3416727 30.0199849,26.7946734 29.8023424,27.2291713 C29.6255477,27.6285776 29.2815322,27.9546105 28.9534728,28.2353433 C28.8194408,28.3342378 28.5998835,28.5020395 28.4269184,28.4184577 C28.2699094,28.2793673 28.2986306,28.0771121 28.310119,27.8876174 L28.2424648,27.9048442 C28.0382255,28.1319826 27.8193065,28.380814 27.5103946,28.4561014 C27.2793489,28.5186283 27.0227732,28.3221153 26.9749047,28.0994431 C26.9327803,27.6234733 26.9532042,27.1385712 26.962778,26.6613253 C26.9768194,26.4628983 26.9570337,26.2714895 27.0068171,26.0775286 C27.0049023,25.3552796 27.0961717,24.6400489 27.1134044,23.9171618 C27.15872,23.7098023 27.1389343,23.4915964 27.1574435,23.2797707 C27.1606348,23.0698591 27.1906324,22.8388925 27.1510611,22.6334471 C27.1236164,22.588147 27.0910658,22.586871 27.0534091,22.630257 C26.8798057,22.82677 26.7693889,23.0979324 26.6551425,23.3320891 C26.6200389,23.416947 26.5651496,23.5037189 26.5677026,23.5975092 C26.5708938,24.1953426 26.5402579,24.6917293 26.5032395,25.2895626 C26.452818,25.5460503 26.4279263,25.8516663 26.2843206,26.0743385 C26.1943276,26.2293796 26.0194477,26.2038584 25.9473257,26.3716601 C25.7628721,26.8808074 25.5675683,27.3854885 25.35567,27.8837892 C25.2726978,28.0554191 25.1941933,28.2162024 25.0512258,28.3469984 C24.9101731,28.4082492 24.7946502,28.3718816 24.6880628,28.2697969 C24.3414943,27.9495062 24.052368,27.5430817 23.846214,27.1200683 C23.7294146,26.7493734 23.7185644,26.3365685 23.6853755,25.9511989 C23.6676464,25.8852692 23.6597511,25.8154956 23.6548745,25.7447627 L23.642486,25.5325712 C23.6283509,25.3581547 23.5904894,25.1957723 23.4224175,25.0904975 C23.1211645,25.3693162 22.8920335,25.6787604 22.4963199,25.8503902 C22.4222832,25.8848438 22.3469699,25.7853113 22.3112281,25.7329929 C22.2193204,25.5230813 22.2480415,25.3016851 22.179749,25.0815651 C22.1644311,25.1651469 22.184855,25.2442625 22.1408159,25.3221021 C22.0686939,25.4988362 22.0093368,25.7993479 21.8204155,25.8829297 C21.6072407,25.9773581 21.4374668,25.6181476 21.2434395,25.7553239 C20.9447395,25.9346101 20.6951846,26.2108767 20.4603095,26.4648123 C20.533708,27.069664 20.6358276,27.7070552 20.7194381,28.3125448 C20.7156086,28.3884703 20.7660301,28.4541873 20.8362374,28.4752423 C21.1566378,28.5843453 21.4642732,28.7183314 21.7387198,28.9186726 C22.1523044,29.191111 22.4975964,29.6530442 22.4593015,30.1704858 C22.4299421,30.6254006 22.1708135,30.9220842 21.8778578,31.2410988 C21.7693557,31.3348891 21.8031828,31.4325075 21.7859501,31.5607514 C21.9965719,31.5160894 22.1778343,31.4388878 22.4024975,31.4586667 C23.2762587,31.3961399 24.0734302,32.1719834 24.052368,33.0416171 C24.0861952,33.7415351 23.6055946,34.395515 22.9443699,34.6086168 C22.4803637,34.7585537 21.9391296,34.6973029 21.5338422,34.4197602 C21.4904414,34.3553192 21.5829873,34.2819459 21.6110702,34.2264373 C21.7750999,33.9929186 21.8746666,33.7058055 21.9142379,33.4250727 C21.9895512,32.7468476 21.6417061,32.0571381 21.0628154,31.7004798 C20.6824197,31.4490963 20.2688351,31.3680666 19.8182322,31.4293174 L19.8150409,31.4656851 C20.513284,31.419747 21.1872737,31.9958873 21.3468356,32.6587996 C21.4336373,33.0224763 21.4081074,33.4040177 21.2517367,33.7447253 C21.0379237,34.2136767 20.5975327,34.5531083 20.0952317,34.6615732 C19.6969651,34.7241001 19.3331639,34.6756099 18.9782981,34.4835631 C18.9629801,34.4318827 18.9706391,34.3910488 19.0025515,34.3604234 C19.4620899,33.827031 19.5252764,33.0212002 19.2067908,32.404864 C18.9572359,31.9569675 18.5506721,31.6066895 18.0515623,31.4695132 C17.8032839,31.3687046 17.4567153,31.4439921 17.2020545,31.4325075 L17.2014162,31.4631329 C17.4356532,31.4567526 17.703079,31.442078 17.924551,31.5269359 C18.4389787,31.6960136 18.8461808,32.1266833 18.9846806,32.6498672 C19.07595,33.0256664 19.0446759,33.4480417 18.8691577,33.7951296 C18.5947112,34.3304361 18.0324149,34.6992169 17.4241647,34.6845423 C17.1031261,34.6973029 16.7297511,34.5945802 16.4853022,34.3840305 C16.5893366,34.2379218 16.6863503,34.088623 16.7591105,33.9233735 C17.0239833,33.3153316 16.9090987,32.579046 16.474452,32.077555 C16.2995721,31.8701956 16.0385288,31.638591 15.7698264,31.5792542 C15.7417435,31.6341248 15.7321698,31.6972896 15.7423818,31.7681109 C16.2536183,32.1758115 16.4955142,32.8406379 16.322549,33.4786671 C16.1534134,34.1588062 15.5126126,34.6832662 14.8073488,34.6839042 C14.5124783,34.699855 14.1646332,34.6245675 13.9272051,34.4465574 C14.2795178,34.0203539 14.4678009,33.4716488 14.3554693,32.9216676 C14.2986653,32.5184332 14.0605988,32.1260453 13.7504104,31.8644533 C13.7165833,31.7674729 13.8046615,31.7642827 13.8640185,31.7151545 C14.2731354,31.4280413 14.8405377,31.3878455 15.3058203,31.5403345 C15.1054105,31.2602397 14.8016045,30.9712124 14.7505447,30.6177443 C14.6388513,30.1124252 14.8686206,29.693878 15.2075301,29.3397718 C15.2062536,29.1400687 15.1500878,28.9091021 15.0160558,28.7515089 C14.5871533,28.1791968 14.024857,27.6413382 13.3712912,27.3382743 C13.0279139,27.2113065 12.7298522,27.0230879 12.5217834,26.7161958 C12.2249982,26.2880783 12.1171343,25.6104913 11.7322709,25.2059808 C11.5254786,25.0611481 11.3110274,24.926524 11.1029586,24.7829674 L11.0467928,24.8021083 C10.6746943,25.1090003 10.3153608,25.4018557 9.89475551,25.6449448 C9.7677442,25.71449 9.59350256,25.8082803 9.44542907,25.778931 C9.31969425,25.7400112 9.32862972,25.6219758 9.32799147,25.5135108 C9.33182096,25.2691457 9.4498968,25.0911355 9.55393119,24.883776 C9.15566457,25.0866693 8.7861191,25.3450711 8.3533871,25.4924559 C8.25701168,25.5192531 8.17403947,25.5084066 8.08085529,25.4796953 C8.08404653,25.363574 8.06617559,25.2602133 8.13063862,25.1574906 C8.25445869,24.8410281 8.4548685,24.5622093 8.59464476,24.2591455 C8.05787837,24.5079769 7.50770877,24.7657406 6.97221888,25.0184002 L6.97541011,25.0630622 C7.27985431,25.4752291 7.6149344,25.9135551 7.79683502,26.3959052 C7.82236493,26.5126645 7.86768053,26.6721718 7.75471067,26.7563917 C7.34942332,27.1270866 7.36729426,27.7089692 7.13433381,28.1791968 C7.06987079,28.2959561 6.99200456,28.4044211 6.84137808,28.3693294 C6.81393342,28.338704 6.79989197,28.2985082 6.79989197,28.250018 C6.80818919,28.0388303 6.75840587,27.8378511 6.65628622,27.6534607 L6.58377106,27.5581596 L6.4299176,27.3827475 C6.38102271,27.322834 6.33741762,27.2582654 6.30780292,27.179405 C6.06718351,26.5764675 5.95612839,25.9052608 5.85145575,25.2704217 C5.63764274,25.3214641 5.43148871,25.4235487 5.22469642,25.5001122 C4.87685138,25.6564294 4.46071382,25.8580466 4.27051597,26.2057725 C4.1026568,26.610283 4.02159933,27.1245345 3.75608825,27.4767266 C3.67566903,27.5954001 3.55567845,27.6075226 3.44207034,27.6789819 C3.26336096,27.8882554 3.27931715,28.1128417 3.2359163,28.3706055 C2.90849519,28.1249643 2.56639437,27.7434228 2.63213389,27.2993545 C2.68447021,26.8176425 2.89700673,26.2861642 3.20655691,25.910365 C3.27740241,25.8025381 3.539084,25.6940731 3.47781222,25.5505165 C3.34633317,25.5045784 3.18230349,25.5843321 3.05593043,25.6289941 C2.5280995,25.8299733 2.08451729,26.1419696 1.59115174,26.4035615 C1.44435475,26.4692785 1.30968447,26.5330815 1.14501654,26.4916096 C0.978433865,26.414408 0.970136643,26.2083246 0.807383456,26.1094301 C0.631865314,25.9741679 0.30635894,26.0047933 0.21381301,26.2255514 C0.153817718,26.2880783 0.180624125,26.5062842 0.0670160181,26.4660884 C0.0268064072,26.3416727 0.0268064072,26.2038584 0,26.0749765 L0,25.6328223 C0.04914508,25.3693162 0.120628833,25.1300553 0.333803595,24.9520452 C0.5635728,24.7625505 0.909503103,24.6961955 1.18777914,24.6151658 C1.59498123,24.576246 1.96197371,24.6381348 2.36151683,24.6974715 C2.94423706,24.6043193 3.51036285,24.3937696 4.07265916,24.2170355 C4.07840339,24.1672693 4.0611707,24.1315396 4.02223758,24.1111227 C3.67949852,23.877604 3.33675945,23.6332388 2.96976697,23.439916 C2.8325437,23.3620764 2.68191722,23.3480398 2.53512023,23.3014637 C2.39725871,23.1981029 2.44576554,22.9473575 2.46938071,22.8012488 C2.53129074,22.6200485 2.62766616,22.4484187 2.42215037,22.3176227 C2.06664635,22.1855506 1.7615639,22.30231 1.41754835,22.3731312 C1.48264962,22.2646663 1.61029918,22.1874647 1.71497182,22.1198336 C1.97346217,21.9609644 2.30726577,21.7899725 2.61681595,21.8078374 C2.889986,21.8710023 3.15868832,21.8684501 3.43696436,21.8684501 C3.72609061,21.9175784 4.07074441,21.8780206 4.27945144,22.128128 C4.40901574,22.3539903 4.3362555,22.6277049 4.41093049,22.8682419 C4.42561019,23.1247296 4.49326445,23.4494864 4.71984242,23.6051656 C4.89472231,23.7314953 5.09321738,23.701508 5.29681842,23.7340475 C5.77869551,23.745532 6.29503797,23.7193728 6.76223535,23.5987853 C7.27155709,23.3097581 7.78151708,23.0066942 8.25573518,22.6627965 C8.4255091,22.5307244 8.58826228,22.4037566 8.70952936,22.2251084 C8.78739559,22.0668772 8.65208706,21.843567 8.59209177,21.6955442 C8.38402299,21.2821013 8.14404182,20.8839711 7.89193394,20.4954113 C7.85555382,20.4322465 7.79172904,20.3658914 7.79109079,20.290604 C8.15616853,20.3595111 8.50209883,20.4214 8.86972956,20.4788226 C9.16842953,20.5260367 9.46712949,20.509448 9.76519121,20.5521959 C10.0389995,20.5171043 10.4296072,20.5375213 10.6159755,20.2995364 C10.699586,20.1508756 10.6236345,20.07176 10.5030057,19.9894542 C9.98347196,19.6423663 9.36564809,19.3667377 8.87100606,18.9424483 C8.67251099,18.7682663 8.50146058,18.5832379 8.39742619,18.3375967 C8.38083175,18.2457205 8.31764522,18.0421891 8.45040076,18.0122018 C8.8007988,17.9452087 9.17991799,18.1595865 9.51053034,18.060692 C9.62669144,17.994337 9.63052093,17.9483989 9.60179978,17.8239832 C9.32671498,17.3256824 8.76378043,16.9569015 8.51422554,16.4509444 C8.53656421,16.3820372 8.59273002,16.3539639 8.68144646,16.3667245 C9.12119919,16.4324415 9.53031602,16.5823784 9.93879461,16.7540082 L9.92347666,16.6742546 C9.18566222,15.8492829 8.47082469,14.9745448 7.65003803,14.2299648 C7.42601306,14.0041025 7.17199043,14.1055491 6.89435264,14.0130349 C6.63650054,13.9785813 6.39268988,13.8803248 6.13483777,13.8573558 C5.28405347,14.6006597 4.30753435,15.4645513 3.466962,16.2193398 C3.46057953,16.2984554 3.55886969,16.3667245 3.58120836,16.4452021 C3.81736004,16.9084113 3.53653101,17.515177 3.03231526,17.6421448 C2.8165875,17.7161562 2.63787812,17.645335 2.42853285,17.601311 C2.35960209,17.6306603 2.32449846,17.7129661 2.2676944,17.7620943 C2.14132134,17.8839579 1.98495063,17.9496749 1.81772971,17.996251 C1.49349983,18.0434652 1.13416633,17.8763016 0.967583652,17.5917405 C0.743558677,17.2350822 0.818871917,16.7233828 1.15012252,16.4573247 C1.20756482,16.4069204 1.29436652,16.3839513 1.33776737,16.3214244 C1.31096096,16.1944566 1.28032507,16.0745072 1.28989879,15.9424351 C1.28351631,15.4792259 1.70795109,15.0830098 2.17004249,15.1193775 C2.41832088,15.1187394 2.57405334,15.2303945 2.75020973,15.3886258 C2.79488708,15.3682089 2.83573494,15.3401356 2.87275331,15.3044059 C3.56589041,14.6836035 4.26923948,14.0710955 4.96110008,13.4502931 L4.96237658,13.4088212 C4.75175481,13.2027378 4.36944438,12.9858079 4.2909399,12.6897624 C4.30625785,12.2501603 4.35859417,11.7907792 4.3790181,11.347349 C4.38731532,11.1667867 4.40071852,10.9843104 4.56538645,10.8739313 C4.84430074,10.6780564 5.19469878,10.5715055 5.51829041,10.4758011 C5.61977181,10.320122 5.68870257,10.1599767 5.8386908,10.0406652 C6.01740018,9.87860579 6.30142045,9.92007769 6.51970119,9.95197914 C6.78265928,9.95580732 7.008599,10.0125919 7.26708936,9.97112002 C7.38452695,9.95197914 7.47388164,9.89519455 7.59770171,9.92326783 C7.91491086,10.0030215 8.09425849,10.2225035 8.31764522,10.4368813 L8.35849308,10.4394334 C10.1679256,8.84117034 12.0041645,7.20845367 13.8167882,5.60572437 L13.805938,5.5451116 C13.3936299,5.04234461 12.7777208,4.74629907 12.126708,4.73928075 C11.4865455,4.71886381 10.8929751,4.91218665 10.3198285,5.17888285 C10.2438771,4.99002621 10.3619529,4.67101162 10.3645059,4.45790988 C10.475561,3.71460588 10.697033,2.96045539 11.0621107,2.30009519 C11.4476124,1.60528142 12.0092704,1.01829457 12.713896,0.643133413 C13.4485192,0.239898972 14.2967505,0.0950663478 15.1264727,0.0969804353 C15.3345414,0.115483282 15.5726079,0.118673427 15.7717412,0.170353791 C15.7366375,0.292855393 15.6402621,0.391111887 15.5955848,0.51297546 C15.3715598,1.04317771 15.3811335,1.66142798 15.4328316,2.22544578 C15.5055918,2.75692409 15.6019673,3.30626721 15.7730177,3.81477647 L15.8259922,3.81605252 C16.1374572,3.55637465 16.4380719,3.27946998 16.7418778,3.01022167 C17.0980201,2.53488993 17.4324619,2.0423314 17.785413,1.56444755 C18.7095958,1.08656369 19.6522878,0.620802392 20.5815765,0.150574886 C20.6888022,0.0982564937 20.801772,0.0121225544 20.9217626,0 Z M20.5751941,32.1751735 C20.7532652,32.4303852 20.8872972,32.709842 20.9760137,33.0090776 L21.0328177,33.0186481 C21.1413198,32.645401 20.9121889,32.3085216 20.5751941,32.1751735 Z M22.8077848,32.0431015 C22.8199115,32.1330636 22.8792686,32.186658 22.9233077,32.2696018 C23.0337246,32.4425077 23.107123,32.6390207 23.181798,32.8310675 L23.2290284,32.841914 C23.3592309,32.4961022 23.1135055,32.1770876 22.8077848,32.0431015 Z M15.395175,32.0418254 C15.4066634,32.1171128 15.4500643,32.1713453 15.4870827,32.2357863 C15.6070732,32.4246429 15.686216,32.6281742 15.7774854,32.8310675 L15.8234392,32.841276 C15.9281119,32.4795134 15.7104694,32.1924003 15.395175,32.0418254 Z M18.1504907,31.9818507 C18.2960112,32.2581173 18.4657851,32.5177952 18.5404601,32.8291534 L18.6068379,32.8246872 C18.6374738,32.6249841 18.6425797,32.4405936 18.5059947,32.2772582 C18.4089811,32.1662411 18.2870757,32.0405493 18.1504907,31.9818507 Z M17.8702999,28.5415973 C17.1018496,28.6558045 16.2810629,28.9320712 15.6996192,29.4661016 C15.3524124,29.7678894 15.0473299,30.2795888 15.1181754,30.7523684 C15.1564703,30.8627475 15.1794472,31.1690015 15.323053,31.1913325 C15.4513408,30.4486665 15.9951279,29.9171882 16.6416729,29.5796708 C17.6730813,29.0609531 18.9706391,29.0131009 20.026301,29.4852425 C20.5573231,29.7283316 21.0908983,30.1692098 21.2696077,30.742798 C21.3110938,30.8404165 21.2887551,30.9476054 21.3327942,31.0420337 C21.3653448,31.0299111 21.3927895,31.006304 21.4138517,30.9705744 C21.6563858,30.5711681 21.6927659,30.0671251 21.4444876,29.6600625 C21.1189812,29.1164616 20.438609,28.7840484 19.8424856,28.6398538 C19.5986749,28.5754129 19.3459288,28.5230945 19.0931827,28.5224564 C18.6623654,28.4363225 18.2915435,28.5141621 17.8702999,28.5415973 Z M30.5420716,15.3465159 C30.561219,15.5181457 30.5829194,15.7337996 30.5005855,15.8894787 C30.5012237,16.3156822 30.4188897,16.7284871 30.4035718,17.1553286 C30.2197564,18.9201173 30.0882774,20.4060873 29.8342548,22.194483 C29.7525591,22.8184756 29.636398,23.4941485 29.5061954,24.1104847 C29.4379029,24.3191202 29.4040758,24.6381348 29.2336636,24.7899857 C29.0683574,24.7753111 29.0804841,24.4830937 29.0038944,24.3727147 C28.8845421,24.8065745 28.7537013,25.2487287 28.5539297,25.6532392 C28.5015934,25.7521338 28.3981972,25.9358862 28.2692712,25.9256777 C28.0899236,25.8708072 28.1448129,25.5332897 28.0075896,25.5020263 C27.9616358,25.7176802 28.0426932,25.8829297 28.0356725,26.085823 C28.0490757,26.3882488 28.0867323,26.7040733 28.1965109,26.9879963 L28.2750154,27.0785964 C28.3777733,27.0709401 28.4409598,26.9446103 28.4875519,26.8648566 C28.747957,26.2421402 28.9036895,25.5664673 29.0255948,24.904831 L29.0575072,24.9105733 C29.1270762,25.101982 29.2228134,25.3488993 29.3900343,25.4758671 C29.5547022,25.5632771 29.6459717,25.4241868 29.7200084,25.2997711 C29.8936118,24.948855 29.9733928,24.554553 30.0410471,24.1730115 C30.3563415,22.3833397 30.4029336,20.3946027 30.5120739,18.5660111 C30.5318596,17.8010141 30.5459011,17.0232565 30.5490923,16.2582596 C30.6058964,16.0942861 30.5701545,15.9283985 30.5797282,15.7497503 C30.5733457,15.6061937 30.6052581,15.48114 30.5420716,15.3465159 Z M19.0842472,18.4141602 C18.4230225,18.4569081 17.8128576,18.7421072 17.4184205,19.285708 L17.3654459,19.2710333 C17.0265363,18.7803889 16.412542,18.4805152 15.8285452,18.4288348 C15.7072782,18.3943813 15.6651538,18.4250067 15.5955848,18.519435 C15.2158274,18.9724357 15.0128646,19.5670789 15.091369,20.15917 L15.0862631,20.2401997 C14.8252197,20.2446659 14.522052,20.2019179 14.2431377,20.29188 C13.8895484,20.3882224 13.504685,20.5777171 13.2602361,20.8539837 C13.2895955,21.4326762 13.5270237,22.0088166 13.9680529,22.3967383 C14.0152833,22.4503327 14.1244236,22.4949948 14.1154882,22.5747484 C13.5787218,22.9690505 13.301084,23.5828345 13.2570449,24.2374525 C13.7357307,24.7191645 14.4161029,24.9316282 15.0869013,24.8486844 C15.0843483,25.1192088 15.0549889,25.3731444 15.1239197,25.648135 C15.2279541,26.0105356 15.4143224,26.4207883 15.7008957,26.6734479 C16.3340375,26.6517549 16.9939857,26.3403967 17.3648077,25.8172127 L17.4184205,25.8070043 C17.8007309,26.348053 18.4351492,26.6338901 19.0848855,26.6772761 C19.5571888,26.2421402 19.8080202,25.4937319 19.7205803,24.8569788 C19.9733264,24.8525126 20.2190518,24.8773957 20.4775421,24.8244393 C20.8745323,24.7134222 21.2434395,24.5347741 21.5402247,24.2431947 C21.4917179,23.6045275 21.23961,22.9952097 20.7162468,22.6034597 C20.6224244,22.5294484 20.7315648,22.4790441 20.7832628,22.4292778 C21.2568427,22.0388039 21.4981004,21.4518171 21.5389482,20.8488795 C21.2281215,20.5336931 20.7941131,20.3282477 20.361381,20.2497701 C20.1482063,20.2114884 19.9299255,20.2529603 19.722495,20.2312673 C19.794617,19.6423663 19.6127164,19.0515513 19.2501916,18.585152 C19.1965788,18.520711 19.160837,18.453718 19.0842472,18.4141602 Z M28.5756301,11.7097495 C28.534144,11.7218721 28.5686094,11.8533061 28.5756301,11.8826554 C28.6873235,12.266111 28.7154064,12.7312343 28.7939109,13.1338307 C28.9113485,13.7846204 28.9585788,14.364589 29.0555925,14.9943238 C29.0849519,15.5774824 29.1819655,16.114703 29.1347352,16.7087082 C29.11112,16.8241914 29.1270762,16.9581776 28.982194,16.9830607 C28.8794361,16.9186198 28.822632,16.8222774 28.7619985,16.7208307 C28.3496904,15.9360548 28.0714144,15.0708873 27.7842029,14.235069 C27.8537719,15.0109125 27.9954629,15.8122772 28.0069513,16.5811023 C28.0656701,17.0200664 28.0388637,17.4941221 27.96738,17.930534 C27.9329146,18.0530356 27.8627073,18.2540148 27.7018689,18.2374261 C27.5072033,18.1838316 27.3559386,17.9592454 27.2423305,17.8022902 C26.875338,17.2542231 26.5389814,16.5070909 26.2747468,15.9220182 C26.2453874,15.9335027 26.2466639,15.9705084 26.2779381,16.0317592 C26.4840921,16.8439703 26.6793959,17.9216016 26.8242782,18.7586959 C26.8581053,19.2219051 26.9921374,19.7686961 26.8861882,20.226163 C26.818534,20.3384562 26.7457737,20.2982603 26.6608868,20.2350954 C26.450265,19.9990246 26.2938943,19.6959608 26.146459,19.416504 C25.8349941,18.8008058 25.5560798,18.1557583 25.2867393,17.5202813 C25.2733361,17.4781713 25.2522739,17.4449938 25.2235527,17.4194727 C25.425239,18.3509953 25.6167134,19.2729474 25.7558514,20.2165926 C25.8190379,20.640882 25.8739272,21.0983489 25.8081877,21.5251904 C25.7615956,21.5832511 25.7098975,21.60303 25.6537317,21.5864412 C25.4935315,21.4696819 25.4054533,21.3127267 25.3007807,21.1493912 C24.8527308,20.3703576 24.4991415,19.5217788 24.1455522,18.6974451 C24.1487434,19.1191824 24.2834137,19.5300732 24.3006464,19.9530865 C24.3746832,20.3371801 24.3995748,20.7365864 24.4608466,21.1194039 C24.4863765,21.7676415 24.6121113,22.5064793 24.4729733,23.1438705 C24.4659526,23.2146917 24.4046808,23.2721143 24.3542592,23.3174144 C24.1959738,23.3448497 24.0664095,23.1457846 23.9847138,23.0373196 C23.6049563,22.4573511 23.3330628,21.7810401 23.060531,21.1468391 C22.9973444,21.0390122 22.9903237,20.9145965 22.9354344,20.8048555 C22.9418169,21.0313559 23.0279803,21.231059 23.0771254,21.449903 C23.2507288,22.0853801 23.416035,22.7259614 23.5953826,23.3595243 C23.7051612,23.5394486 23.8353638,23.7212869 24.0038612,23.8501688 C24.1353402,23.9382168 24.36128,23.9452351 24.4525494,23.7933842 C24.649768,23.5177556 24.7206135,23.133662 24.7518876,22.8025249 C24.8125211,22.5230681 24.8163506,22.2295746 24.8425188,21.9450136 L24.8910256,21.9501179 C25.1010091,22.1606675 25.3537553,22.3533523 25.6556465,22.3973763 C25.8854157,22.412689 26.0634868,22.2557338 26.16433,22.0636871 C26.3819725,21.624085 26.3928227,21.1857589 26.4132466,20.7078751 C26.5204722,20.684906 26.6902461,20.7327582 26.800663,20.6600229 C27.0566004,20.5419875 27.1931854,20.2229729 27.2365863,19.9620189 C27.3591298,19.4662703 27.2959433,18.8888539 27.2831783,18.3867249 L27.375086,18.3982094 C27.5735811,18.564097 27.9188731,18.7638001 28.1799165,18.6470408 C28.3235222,18.5519745 28.3745821,18.4026756 28.4033032,18.2406162 C28.4658515,17.8335536 28.3758586,17.4392516 28.3043748,17.0487777 C28.3771351,17.0647284 28.3892618,17.1272553 28.4428746,17.1770216 C28.6145632,17.3588599 28.8507149,17.579618 29.1028228,17.6261941 C29.3932255,17.6395927 29.4519443,17.3193021 29.5023659,17.1010961 C29.5834234,16.1351199 29.3440805,15.1059789 29.1698388,14.1546774 C29.0038944,13.4330663 28.8539062,12.6923145 28.6420079,11.982826 C28.6069043,11.8711709 28.6560493,11.7799327 28.5756301,11.7097495 Z M14.2495202,18.0153919 C13.6202079,18.1372555 12.9519624,18.2686895 12.3679657,18.543042 C12.2032978,18.6374704 11.9473604,18.7631621 12.0194824,18.9966808 C12.0348004,19.1204585 12.281164,19.1797952 12.2262747,19.2869841 C11.9352337,19.4056575 11.5950476,19.5549563 11.3825111,19.7929412 C11.2797532,19.9154428 11.3020919,19.9996627 11.4246355,20.0902628 C11.7431211,20.2803955 12.1439407,20.3582351 12.5090185,20.2714631 C12.64688,20.2389236 12.8223981,20.247856 12.9474947,20.181501 C12.641774,20.1023854 12.2907377,20.0475149 12.0296944,19.8675906 C11.928213,19.7840088 11.9499134,19.6991509 12.0392681,19.6181212 C12.2001065,19.5064661 12.4068988,19.4458533 12.5939054,19.3928969 C12.6219883,19.2901742 12.5600783,19.1868135 12.5990114,19.0770725 C12.6456035,18.9156511 12.7687853,18.7944255 12.8926054,18.6872366 C13.2915103,18.3682221 13.7848758,18.2048866 14.2495202,18.0153919 Z M20.8151752,14.8622517 C20.8464494,15.0893901 20.9102741,15.4403061 20.7513504,15.6317149 C20.5732793,15.8492829 20.2886208,15.7842039 20.0537456,15.7178488 C20.1086349,15.8888407 20.2522407,16.1491566 20.1641625,16.3214244 C20.0888492,16.4892261 19.8661008,16.442012 19.7212185,16.4228711 C19.6203754,16.4260612 19.5527211,16.332909 19.4595369,16.3731048 C19.5437856,16.6283165 19.6407993,16.9600917 19.5303824,17.2191315 C19.364438,17.5234714 18.9948925,17.4953981 18.7012985,17.4500981 C18.4102575,17.4469079 18.1715529,17.2612414 17.8888091,17.2478428 C18.3151586,17.4781713 18.7549114,17.8188789 19.2744451,17.8820438 C19.4818756,17.906927 19.658032,17.8271733 19.7461102,17.6338505 C19.8495063,17.3454613 19.7741931,17.0615383 19.7269627,16.7731491 C19.938861,16.8069647 20.0811903,16.9856128 20.3326599,16.9345705 C20.4813716,16.8548168 20.4622242,16.7246589 20.448821,16.5791882 C20.436056,16.3896936 20.2937268,16.1816961 20.2867061,16.0087901 C20.5566849,15.8939449 20.876447,15.7197629 20.9772902,15.4237174 C21.0200528,15.2674002 20.9766519,14.9298828 20.8151752,14.8622517 Z M22.0016779,10.8586186 C21.7285078,10.9479427 21.5485219,11.347987 21.4464023,11.5968184 C21.237057,11.7780187 20.9428248,11.8979681 20.7570947,12.0989473 C20.9945229,12.0147275 21.2000386,11.9030724 21.4438493,11.8679808 C21.6072407,11.8233187 21.7757382,11.8226807 21.9378531,11.7748285 C21.8561574,11.6523269 21.7616967,11.5751254 21.7821206,11.4124279 C21.7616967,11.1750811 21.9091319,11.0493893 22.0016779,10.8586186 Z M15.2241246,11.3077912 C15.0856248,11.3766983 14.952231,11.4736787 14.8213902,11.5572606 L14.8111783,11.6031987 C14.9101067,11.6810382 15.114346,11.7231481 15.238166,11.719958 C15.2305071,11.5827817 15.2388043,11.4443294 15.2241246,11.3077912 Z M18.220698,10.9747399 C18.2889905,10.9651695 18.3438798,10.977292 18.3866424,11.0111076 C18.4447229,11.2561108 18.5774785,11.4909055 18.7970357,11.6255297 C19.1742402,11.7390989 19.4742166,11.5189788 19.792064,11.3581955 C19.8980132,11.3537293 20.0116213,11.4468815 20.0926787,11.5087703 C20.0645958,11.4481576 20.021195,11.4111519 19.9637527,11.3798884 C19.4946405,11.0276963 18.9004319,10.8254411 18.3164351,10.7992819 C18.2175067,10.7699326 18.0866659,10.9313539 18.220698,10.9747399 Z M14.1697392,0.891964793 C13.2008791,1.03041713 12.3009497,1.54275456 11.7667363,2.37474461 C11.4016585,2.94833284 11.1846543,3.6361283 11.1304032,4.30924908 C11.3952761,4.25629266 11.6697226,4.16441646 11.9441692,4.12230653 C12.345627,4.09614733 12.7221932,4.05850361 13.0923769,4.24736025 C13.4185216,3.72290026 13.8818895,3.2405502 14.4882249,3.05871189 C14.6260864,3.00894561 14.7773511,3.00447941 14.9126597,2.95024693 C14.8022428,2.26883176 14.6439573,1.52552777 14.9503163,0.868357714 C14.7205471,0.807744941 14.4084439,0.856235159 14.1697392,0.891964793 Z" id="Combined-Shape"></path>
                            <path d="M21.9282794,8.81692523 C21.9442356,9.25588931 21.8663693,9.67635054 21.7757382,10.1031921 C21.7463788,10.1689091 21.7272313,10.2454726 21.6838305,10.3035332 C21.4081074,10.3481953 21.1502553,10.3985996 20.9198479,10.5683153 C20.7839011,10.6499831 20.6977376,10.7909875 20.5751941,10.8835017 C20.3920169,10.5287575 20.0862962,10.2926867 19.732707,10.1210569 C19.7135595,10.0776709 19.732707,10.0419413 19.7901493,10.015144 C20.4596712,9.64636317 21.2689694,9.18060187 21.9282794,8.81692523 Z" id="Path"></path>
                            <path d="M25.0205899,10.5753337 C25.2184467,10.5791618 25.3977944,10.7699326 25.5267204,10.9032807 C25.6728792,11.0812908 25.8471208,11.2669573 25.947964,11.4730407 C25.7347892,12.1633883 25.4341745,12.8186442 25.0684585,13.4413607 C24.3440473,14.6746711 23.3713576,15.7899461 22.3303755,16.7667688 C22.2703802,16.815259 22.2505945,16.8771479 22.1644311,16.8816141 C22.3890943,16.3737428 22.5958866,15.8939449 22.8045936,15.3777793 C23.2781735,14.1502111 23.7881334,12.7931231 23.8857854,11.4768689 C23.8774881,11.1872036 23.9445041,10.889882 24.1978885,10.7182522 C24.4391462,10.5561928 24.7429521,10.5753337 25.0205899,10.5753337 Z" id="Path"></path>
                            <path d="M15.8540751,18.9698836 C15.9070497,18.9220314 15.9625773,18.9118229 16.0206578,18.9392582 C16.5401915,19.044533 16.979306,19.3980012 17.1490799,19.9065104 C17.2167342,20.1125938 17.2977916,20.3977929 17.257582,20.6064284 C16.8005966,20.6504524 16.4974289,20.7761442 16.1432014,21.0638953 L16.0902268,21.0447545 C15.8579046,20.8131499 15.6728128,20.5375213 15.5745226,20.2229729 C15.457085,19.7833708 15.5630342,19.3176095 15.8540751,18.9698836 Z" id="Path"></path>
                            <path d="M18.8889434,18.9462765 C19.0433994,19.0068893 19.1512632,19.2391319 19.2112585,19.3865166 C19.3937974,20.0092331 19.1053094,20.6083425 18.6968308,21.0664475 C18.6170498,21.0485826 18.5640753,20.9771234 18.4919533,20.9362895 C18.2264422,20.7525371 17.9034888,20.6427961 17.5824502,20.6159989 C17.4835218,20.0909008 17.7669038,19.5090182 18.2162302,19.220629 C18.4102575,19.0949373 18.65343,18.9532948 18.8889434,18.9462765 Z" id="Path"></path>
                            <path d="M14.6254481,20.706599 C15.1054105,20.7174455 15.5279305,20.9445839 15.8879023,21.2457337 L15.9044967,21.2986901 C15.6370709,21.6362075 15.5113361,21.9820193 15.4475113,22.4043946 C15.2694402,22.433106 15.0460534,22.3603706 14.8705353,22.3131565 C14.3216422,22.1459928 13.8972074,21.6712991 13.7893435,21.1098334 C13.7848758,21.0460305 13.8040232,21.0013685 13.8461476,20.9752093 C14.0759168,20.8074076 14.3420661,20.7206356 14.6254481,20.706599 Z" id="Path"></path>
                            <path d="M21.0136703,21.0453925 C21.0411149,21.2667886 20.9000622,21.538589 20.7819863,21.7242555 C20.4449915,22.2034155 19.9152458,22.3641988 19.3689057,22.4790441 C19.3255049,22.3712171 19.3261431,22.2461634 19.299975,22.1319562 C19.2342354,21.7938007 19.0638233,21.4983932 18.8429896,21.2380773 C19.3982651,20.6440721 20.3626575,20.5400734 21.0136703,21.0453925 Z" id="Path"></path>
                            <path d="M17.8709382,20.9413937 C18.5576928,21.1296123 19.0740353,21.799543 19.0670145,22.5141357 C19.0912679,23.0870859 18.7791648,23.657484 18.2934582,23.9586337 C17.8466847,24.2502131 17.2409876,24.2967892 16.752728,24.0875156 C16.2817012,23.8954688 15.9147087,23.4864921 15.7851444,22.9939336 C15.6332414,22.4541609 15.7704647,21.8448431 16.1489456,21.4294861 C16.5695509,20.9509642 17.2620498,20.7608315 17.8709382,20.9413937 Z" id="Path"></path>
                            <path d="M15.3862395,22.6876796 C15.5151656,22.7125627 15.459638,22.7999727 15.4864444,22.8963151 C15.5381425,23.2312805 15.6919602,23.5400866 15.9102409,23.7978504 C15.8885405,23.9037632 15.7232343,23.985431 15.6421769,24.053062 C15.099028,24.4397077 14.3720638,24.4269471 13.8155117,24.0760311 C13.7733873,24.0441296 13.7567929,24.0103141 13.7657284,23.9739464 C13.8352974,23.5400866 14.0663431,23.1445085 14.462695,22.9352349 C14.753736,22.7597769 15.0575419,22.7285135 15.3862395,22.6876796 Z" id="Path"></path>
                            <path d="M19.4646429,22.7119247 C19.9573702,22.7042684 20.4392473,22.8848306 20.7360325,23.2906172 C20.884106,23.4922344 21.0194145,23.8016785 21.0104791,24.0466818 C20.7685831,24.2502131 20.4200998,24.3548498 20.1048054,24.3452794 C19.6624997,24.3593161 19.2259382,24.1270734 18.9010701,23.8418744 L18.8921346,23.7921081 C19.0650998,23.5656078 19.2055143,23.330175 19.2840188,23.0545464 C19.3286961,22.935873 19.2648713,22.6538641 19.4646429,22.7119247 Z" id="Path"></path>
                            <path d="M16.0844826,24.0147803 L16.1425631,24.0326451 C16.4533898,24.2980653 16.8439975,24.446088 17.2492848,24.4824557 L17.2767295,24.5481727 C17.2416258,24.8793098 17.188013,25.1957723 17.0124949,25.4841615 C16.7916611,25.8784635 16.3659499,26.1253808 15.9242824,26.171957 C15.8419484,26.1190005 15.8004623,26.0475413 15.7628057,25.9601313 C15.6121792,25.6672759 15.5477162,25.3278443 15.6026055,25.0018114 C15.6581331,24.6355827 15.8445014,24.292961 16.0844826,24.0147803 Z" id="Path"></path>
                            <path d="M18.8691577,24.2610596 C19.2878483,24.7925379 19.3369933,25.5722095 18.9297913,26.1234667 C18.8283099,26.195564 18.7759735,26.1553682 18.6674714,26.1368653 C18.3796217,26.1062399 18.1051751,25.9378002 17.9162538,25.7221464 C17.636063,25.3941994 17.5179871,24.905469 17.5281991,24.4862839 C17.9054035,24.44545 18.2621841,24.3388991 18.560884,24.0970861 C18.702575,23.9509774 18.784909,24.1723735 18.8691577,24.2610596 Z" id="Path"></path>
                            <path d="M13.0681235,31.5926529 C13.574254,31.814687 13.93997,32.3097977 14.0063478,32.8578647 C14.0835758,33.4263487 13.8391269,34.0165257 13.3776737,34.3585094 C12.9883426,34.6666774 12.4771061,34.7521734 11.997782,34.6430704 C11.3895318,34.5007899 10.8687216,33.957189 10.7946849,33.3312824 C10.7193717,33.0888313 10.7946849,32.8961465 10.8170236,32.6575236 C10.9682883,32.0507578 11.5056929,31.5575613 12.1254315,31.4675991 C12.4566821,31.4471822 12.7655941,31.4356977 13.0681235,31.5926529 Z M12.9730246,32.0379972 C13.1025889,32.3002272 13.2602361,32.5401262 13.3495908,32.8272393 L13.3898004,32.8406379 C13.5136205,32.5043966 13.2921485,32.1471002 12.9730246,32.0379972 Z" id="Combined-Shape"></path>
                            <path d="M26.1732654,32.208989 C26.4904746,32.7028236 26.4974953,33.3938092 26.1917746,33.8946621 C25.9071161,34.3878587 25.3358843,34.7151677 24.7640143,34.6851803 C24.4997797,34.6858183 24.1717204,34.6162731 23.9681193,34.4420912 C24.2483101,34.0911751 24.4372314,33.6911308 24.4244665,33.2330259 C24.4359549,32.6792166 24.1672526,32.1924003 23.761327,31.8299997 C24.0300294,31.5881867 24.3995748,31.4395259 24.7640143,31.4573907 C25.3269489,31.4171948 25.8796715,31.7368475 26.1732654,32.208989 Z M25.4935315,32.0348071 C25.65437,32.3059695 25.8049965,32.5758558 25.8905217,32.8808338 L25.9441345,32.8884901 C25.9690261,32.7398293 25.9862588,32.600739 25.932646,32.4559063 C25.8369089,32.2778962 25.6767087,32.1222171 25.4935315,32.0348071 Z" id="Combined-Shape"></path>
                        </g>
                    </g>
                </g>
            </g>
        </g>
    </g>
</svg>