<?xml version="1.0" encoding="UTF-8"?>
<svg width="36px" height="36px" viewBox="0 0 36 36" version="1.1" xmlns="http://www.w3.org/2000/svg" xmlns:xlink="http://www.w3.org/1999/xlink">
    <title>instagram</title>
    <g id="nav" stroke="none" stroke-width="1" fill="none" fill-rule="evenodd">
        <g transform="translate(-6256, -975)" fill-rule="nonzero" id="socials">
            <g transform="translate(6160, 975)">
                <g id="instagram" transform="translate(96, 0)">
                    <circle id="Oval" fill="#FFFFFF" cx="18" cy="18" r="18"></circle>
                    <path d="M23.4000102,9.22500571 L12.6000025,9.22500571 C10.724993,9.22500571 9.22499302,10.7250057 9.22499302,12.6000152 L9.22499302,23.4000102 C9.22499302,25.2750239 10.724993,26.775007 12.6000025,26.775007 L23.4000102,26.775007 C25.2750112,26.775007 26.7750197,25.2750239 26.7750197,23.4000102 L26.7750197,12.6000025 C26.7750197,10.7250057 25.2749985,9.22500571 23.4000102,9.22500571 L23.4000102,9.22500571 Z M24.3750138,11.2500063 L24.7500021,11.2500063 L24.7500021,14.2500063 L21.7500021,14.2500063 L21.7500021,11.2500063 L24.3750138,11.2500063 L24.3750138,11.2500063 Z M15.5250133,16.2000178 C16.0500055,15.4500072 17.0250091,14.9250023 18.0000127,14.9250023 C18.9750163,14.9250023 19.9500199,15.4500072 20.4750121,16.2000178 C20.8500047,16.7250099 21.0750104,17.3250083 21.0750104,18.0000127 C21.0750104,19.7250015 19.650008,21.0750104 18.0000127,21.0750104 C16.3500047,21.0750104 14.925015,19.7250142 14.925015,18.0000127 C14.925015,17.3250083 15.150008,16.7250099 15.5250133,16.2000178 Z M25.0500182,23.4000102 C25.0500182,24.3000203 24.3000076,25.0500182 23.4000102,25.0500182 L12.6000025,25.0500182 C11.7000051,25.0500182 10.9499945,24.3000203 10.9499945,23.4000102 L10.9499945,16.2000178 L13.5749934,16.2000178 C13.3499877,16.7250099 13.2000008,17.4000144 13.2000008,18.0000127 C13.2000008,20.6250116 15.3750011,22.8000119 18,22.8000119 C20.6249989,22.8000119 22.7999992,20.6250116 22.7999992,18.0000127 C22.7999992,17.4000144 22.6499869,16.7249972 22.4250066,16.2000178 L25.0500182,16.2000178 L25.0500182,23.4000102 L25.0500182,23.4000102 Z" id="Shape" fill="#002C5A"></path>
                </g>
            </g>
        </g>
    </g>
</svg>