<?xml version="1.0" encoding="UTF-8"?>
<svg width="36px" height="36px" viewBox="0 0 36 36" version="1.1" xmlns="http://www.w3.org/2000/svg" xmlns:xlink="http://www.w3.org/1999/xlink">
    <title>linkedin</title>
    <g id="nav" stroke="none" stroke-width="1" fill="none" fill-rule="evenodd">
        <g transform="translate(-6208, -975)" id="socials">
            <g transform="translate(6160, 975)">
                <g id="linkedin" transform="translate(48, 0)">
                    <circle id="Oval" fill="#002C5A" cx="18" cy="18" r="18"></circle>
                    <path d="M17.9999639,0 C8.05879293,0 0,8.05880912 0,18 C0,27.9411909 8.05879293,36 17.9999639,36 C27.9411348,36 36,27.9411909 36,18 C36,8.05880912 27.9409902,0 17.9999639,0 Z M13.1975395,26.7021749 L9.24546391,26.7021749 L9.24546391,13.9341219 L13.1975395,13.9341219 L13.1975395,26.7021749 Z M11.2026685,12.2620504 C9.91196323,12.2620504 8.86561931,11.2071734 8.86561931,9.90612712 C8.86561931,8.60493624 9.91210782,7.55013154 11.2026685,7.55013154 C12.4932293,7.55013154 13.5395732,8.60493624 13.5395732,9.90612712 C13.5396455,11.2072457 12.4933015,12.2620504 11.2026685,12.2620504 L11.2026685,12.2620504 Z M28.0080088,26.7021749 L24.0750194,26.7021749 L24.0750194,20.000008 C24.0750194,18.1617994 23.3767821,17.1356964 21.9232655,17.1356964 C20.3413509,17.1356964 19.5149322,18.204382 19.5149322,20.000008 L19.5149322,26.7021749 L15.7244387,26.7021749 L15.7244387,13.9341219 L19.5149322,13.9341219 L19.5149322,15.6537644 C19.5149322,15.6537644 20.6551167,13.5446611 23.3624674,13.5446611 C26.0698904,13.5446611 28.0080088,15.1977909 28.0080088,18.6176283 L28.0080088,26.7021749 L28.0080088,26.7021749 Z" id="Shape" fill="#FFFFFF" fill-rule="nonzero"></path>
                </g>
            </g>
        </g>
    </g>
</svg>