<?xml version="1.0" encoding="UTF-8"?>
<svg width="60px" height="60px" viewBox="0 0 60 60" version="1.1" xmlns="http://www.w3.org/2000/svg" xmlns:xlink="http://www.w3.org/1999/xlink">
    <title>nav-button</title>
    <g id="nav" stroke="none" stroke-width="1" fill="none" fill-rule="evenodd">
        <g transform="translate(-6328, -51)" id="Group-2">
            <g transform="translate(5969, 51)">
                <g id="nav-button" transform="translate(359, 0)">
                    <circle id="Oval" stroke="#FFFFFF" fill="#002C5A" cx="30" cy="30" r="29.5"></circle>
                    <g id="close" transform="translate(18, 18)" fill="#FFFFFF" fill-rule="nonzero">
                        <path d="M1.08861917,23.9999997 C0.648891396,23.9981351 0.253278923,23.732405 0.085252,23.3260267 C-0.0827749228,22.9196484 0.0096507401,22.4521119 0.319665427,22.1402431 L22.1339559,0.325131241 C22.4096508,0.0494259382 22.8114849,-0.0582492483 23.1880911,0.0426658849 C23.5646974,0.143581018 23.8588604,0.437755061 23.9597717,0.814375491 C24.060683,1.19099592 23.9530119,1.59284513 23.677317,1.86855041 L1.86302648,23.6836623 C1.65718811,23.887837 1.37853434,24.0016577 1.08861917,23.9999997 Z" id="Path"></path>
                        <path d="M22.9029097,24 C22.6141011,23.9987637 22.3375652,23.8830458 22.1339559,23.6782085 L0.319665427,1.86309663 C0.0439705102,1.58739135 -0.0637006179,1.18554215 0.0372107164,0.808921718 C0.138122051,0.432301291 0.432285014,0.138127251 0.80889126,0.0372121175 C1.18549751,-0.0637030165 1.58733158,0.0439721658 1.86302648,0.319677463 L23.677317,22.1347894 C23.9919444,22.4468441 24.0865115,22.9182429 23.9165881,23.3275104 C23.7466647,23.736778 23.3460289,24.0025585 22.9029097,24 Z" id="Path"></path>
                    </g>
                </g>
            </g>
        </g>
    </g>
</svg>