<?xml version="1.0" encoding="UTF-8"?>
<svg width="50px" height="50px" viewBox="0 0 50 50" version="1.1" xmlns="http://www.w3.org/2000/svg" xmlns:xlink="http://www.w3.org/1999/xlink">
    <title>play</title>
    <g id="home" stroke="none" stroke-width="1" fill="none" fill-rule="evenodd">
        <g id="m-home" transform="translate(-175, -415)">
            <g id="m-content-home" transform="translate(0, 111)">
                <g id="image" transform="translate(0, 144)">
                    <g id="play" transform="translate(175, 160)">
                        <circle id="Oval" fill="#002C5A" cx="25" cy="25" r="25"></circle>
                        <path d="M25,0 C11.1928813,0 0,11.1928813 0,25 C0,38.8071187 11.1928813,50 25,50 C38.8071187,50 50,38.8071187 50,25 C50,18.3695878 47.366079,12.0107399 42.6776695,7.32233047 C37.9892601,2.63392101 31.6304122,0 25,0 L25,0 Z M25,47.7272727 C12.4480739,47.7272727 2.27272727,37.5519261 2.27272727,25 C2.27272727,12.4480739 12.4480739,2.27272727 25,2.27272727 C37.5519261,2.27272727 47.7272727,12.4480739 47.7272727,25 C47.7272727,37.5519261 37.5519261,47.7272727 25,47.7272727 L25,47.7272727 Z M19.9318182,13.8181818 C19.5758987,13.6012717 19.1286468,13.6012717 18.7727273,13.8181818 C18.42453,14.013384 18.2012784,14.3740212 18.1818182,14.7727273 L18.1818182,35.2272727 C18.1855083,35.6423702 18.4108997,36.0238019 18.7727273,36.2272727 C19.1300487,36.4391297 19.5744967,36.4391297 19.9318182,36.2272727 L35.8409091,26 C36.1649691,25.7906779 36.3606973,25.4312403 36.3606973,25.0454545 C36.3606973,24.6596688 36.1649691,24.3002312 35.8409091,24.0909091 L19.9318182,13.8181818 Z M20.4545455,33.1363636 L20.4545455,16.8636364 L33.1363636,25 L20.4545455,33.1363636 Z" id="Shape" fill="#FFFFFF" fill-rule="nonzero"></path>
                    </g>
                </g>
            </g>
        </g>
    </g>
</svg>