<?xml version="1.0" encoding="UTF-8"?>
<svg width="18px" height="18px" viewBox="0 0 18 18" version="1.1" xmlns="http://www.w3.org/2000/svg" xmlns:xlink="http://www.w3.org/1999/xlink">
    <title>Shape</title>
    <g id="home" stroke="none" stroke-width="1" fill="none" fill-rule="evenodd">
        <g id="m-home" transform="translate(-286, -36)" fill="#002C5A" fill-rule="nonzero">
            <g id="search" transform="translate(270, 20)">
                <path d="M33.0567507,31.7567568 L30.0655603,28.7878788 C32.4011473,25.7985258 32.155296,21.5397215 29.4714198,18.8574939 C28.057775,17.4447174 26.1729154,16.6666667 24.1651301,16.6666667 C22.1573448,16.6666667 20.2724851,17.4447174 18.8588404,18.8574939 C17.4451957,20.2702703 16.6666667,22.1539722 16.6666667,24.1605242 C16.6666667,26.1670762 17.4451957,28.0507781 18.8588404,29.4635545 C20.2724851,30.8763309 22.1573448,31.6543817 24.1651301,31.6543817 C25.8246261,31.6543817 27.4636345,31.1015561 28.7748412,30.0573301 L31.7455439,33.0671581 C31.9299324,33.2514333 32.155296,33.3333333 32.4011473,33.3333333 C32.6469986,33.3333333 32.8723622,33.2309582 33.0567507,33.0671581 C33.4255276,32.7190827 33.4255276,32.1253071 33.0567507,31.7567568 Z M29.8197091,24.1605242 C29.8197091,25.6756757 29.2255685,27.0884521 28.1602131,28.1531532 C27.0948576,29.2178542 25.6607253,29.8116298 24.1651301,29.8116298 C22.6695349,29.8116298 21.2354026,29.2178542 20.1700471,28.1531532 C19.1046917,27.0884521 18.5105511,25.6552007 18.5105511,24.1605242 C18.5105511,22.6453726 19.1046917,21.2325962 20.1700471,20.1678952 C21.2354026,19.1031941 22.6695349,18.5094185 24.1651301,18.5094185 C25.6812129,18.5094185 27.0948576,19.1031941 28.1602131,20.1678952 C29.2255685,21.2325962 29.8197091,22.6453726 29.8197091,24.1605242 Z" id="Shape"></path>
            </g>
        </g>
    </g>
</svg>