<?xml version="1.0" encoding="UTF-8"?>
<svg width="36px" height="36px" viewBox="0 0 36 36" version="1.1" xmlns="http://www.w3.org/2000/svg" xmlns:xlink="http://www.w3.org/1999/xlink">
    <title>twitter</title>
    <g id="nav" stroke="none" stroke-width="1" fill="none" fill-rule="evenodd">
        <g transform="translate(-6352, -975)" id="socials">
            <g transform="translate(6160, 975)">
                <g id="twitter" transform="translate(192, 0)">
                    <circle id="Oval" fill="#FFFFFF" cx="18" cy="18" r="18"></circle>
                    <g id="vimeo" transform="translate(8.64, 10.08)" fill="#002C5A" fill-rule="nonzero">
                        <path d="M17.9911872,3.6642842 C17.9105202,5.44676387 16.6868915,7.88738135 14.3203634,10.9861683 C11.8731217,14.2220508 9.80237267,15.84 8.1081475,15.84 C7.05932073,15.84 6.17189016,14.8527854 5.44576259,12.8783403 L3.99356959,7.44862809 C3.4557117,5.47419882 2.87751253,4.48696835 2.2589876,4.48696835 C2.12452702,4.48696835 1.65389942,4.77490859 0.847104818,5.35078907 L0,4.24016469 C0.879952455,3.45172276 1.7539873,2.65643982 2.62202809,1.85438543 C3.80529991,0.812316736 4.69276155,0.263871202 5.28439746,0.209017144 C6.68281244,0.0719057607 7.54336953,1.04541876 7.86608426,3.1295403 C8.21568801,5.37820818 8.45772018,6.77677281 8.59216523,7.32523418 C8.99556253,9.18998701 9.43928558,10.1223634 9.92334992,10.1223634 C10.2998427,10.1223634 10.8646051,9.51906384 11.6175906,8.31246465 C12.3705917,7.10584963 12.7739734,6.18719069 12.8277515,5.55647199 C12.935323,4.51440329 12.5319413,3.99337687 11.6175906,3.99337687 C11.1873043,3.99337687 10.7435657,4.08936751 10.2864059,4.28131711 C11.1738676,1.34707648 12.8681083,-0.0789072572 15.369128,0.00336590896 C17.2247183,0.0582199664 18.0987432,1.27853662 17.9911561,3.66431588 L17.9911872,3.6642842 Z" id="Path"></path>
                    </g>
                </g>
            </g>
        </g>
    </g>
</svg>