<?xml version="1.0" encoding="UTF-8"?>
<svg width="36px" height="36px" viewBox="0 0 36 36" version="1.1" xmlns="http://www.w3.org/2000/svg" xmlns:xlink="http://www.w3.org/1999/xlink">
    <title>twitter</title>
    <g id="nav" stroke="none" stroke-width="1" fill="none" fill-rule="evenodd">
        <g transform="translate(-6304, -975)" id="socials">
            <g transform="translate(6160, 975)">
                <g id="twitter" transform="translate(144, 0)">
                    <circle id="Oval" fill="#FFFFFF" cx="18" cy="18" r="18"></circle>
                    <path d="M27.36,12.5049981 C26.6980449,12.7937047 25.9869413,12.9887829 25.2394026,13.0769554 C26.0020192,12.6275086 26.5870731,11.9142694 26.8629329,11.0652804 C26.1494648,11.4819916 25.3590956,11.7847386 24.5180273,11.9470431 C23.8441727,11.2416635 22.8849619,10.8 21.8226864,10.8 C19.7837577,10.8 18.1301103,12.4277375 18.1301103,14.4362839 C18.1302111,14.7146439 18.1621179,14.9921096 18.2252291,15.2634491 C15.1549559,15.1112552 12.4350407,13.6637543 10.613327,11.4648226 C10.2962645,12.003243 10.1138954,12.6275086 10.1138954,13.2923312 C10.1138954,14.5533003 10.7663542,15.6668447 11.7564573,16.3184281 C11.1700505,16.300042 10.596584,16.1440686 10.0837784,15.8634872 L10.0837784,15.9103014 C10.0837784,17.6714613 11.3561369,19.1408241 13.046258,19.4748188 C12.7291168,19.559042 12.4020393,19.6015457 12.0735585,19.6012209 C11.8402953,19.6014055 11.6075321,19.5799833 11.3783467,19.5372377 C11.8484364,20.9808089 13.21196,22.0326974 14.8283584,22.0607783 C13.5639071,23.0361694 11.9713078,23.6175124 10.2415344,23.6175124 C9.94346469,23.6175124 9.64934856,23.6003434 9.36,23.5667684 C10.9946546,24.5991988 12.9352862,25.2 15.020185,25.2 C21.8139652,25.2 25.5279759,19.6612743 25.5279759,14.8576498 C25.5279759,14.7016024 25.5239836,14.5439527 25.5168516,14.3879054 C26.2382656,13.8744372 26.8645221,13.2353682 27.3583721,12.5073254 L27.36,12.5049981 Z" id="Path" fill="#002C5A" fill-rule="nonzero"></path>
                </g>
            </g>
        </g>
    </g>
</svg>